<svg xmlns="http://www.w3.org/2000/svg" viewBox="0 0 172.78 32.49"><defs><style>.cls-1{fill:#3f51b5;}.cls-2{isolation:isolate;}.cls-3{fill:#fff;}</style></defs><g id="Livello_2" data-name="Livello 2"><g id="Livello_1-2" data-name="Livello 1"><g id="Group_84" data-name="Group 84"><g id="Ellipse_58" data-name="Ellipse 58"><circle class="cls-1" cx="40.62" cy="16.03" r="16.03"/></g><g id="S_SPESE" data-name="S SPESE" class="cls-2"><g class="cls-2"><path class="cls-1" d="M20,4.8a3.16,3.16,0,0,1-3.13,3.26c-.69,0-.69,0-2.44-.64a9.57,9.57,0,0,0-3.13-.6c-2.07,0-3.54,1.06-3.54,2.53a2.1,2.1,0,0,0,1,1.75c.83.6.83.6,3.78,1.38,6.76,1.84,9.66,4.74,9.66,9.71a10.51,10.51,0,0,1-2.62,7c-1.94,2.11-5.16,3.26-9.07,3.26C4.32,32.49,0,30.33,0,27.29a3.23,3.23,0,0,1,3-3.35c.87,0,.87,0,4.23,1.28a10.09,10.09,0,0,0,3.45.69c2.35,0,3.86-1.29,3.86-3.22a2.45,2.45,0,0,0-1.19-2.21c-.88-.59-1.52-.82-4.88-1.84-3.59-1.05-5-1.74-6.3-3A7.6,7.6,0,0,1,.23,10C.23,4.34,5,.24,11.55.24,16.47.24,20,2.13,20,4.8Z"/><path class="cls-1" d="M79,4.8A3.16,3.16,0,0,1,75.9,8.06c-.69,0-.69,0-2.44-.64a9.57,9.57,0,0,0-3.13-.6c-2.06,0-3.54,1.06-3.54,2.53a2.09,2.09,0,0,0,1,1.75c.83.6.83.6,3.77,1.38,6.76,1.84,9.66,4.74,9.66,9.71a10.46,10.46,0,0,1-2.62,7c-1.93,2.11-5.15,3.26-9.06,3.26-6.12,0-10.45-2.16-10.45-5.2a3.23,3.23,0,0,1,3-3.35c.87,0,.87,0,4.23,1.28a10.14,10.14,0,0,0,3.45.69c2.35,0,3.87-1.29,3.87-3.22a2.45,2.45,0,0,0-1.2-2.21c-.87-.59-1.52-.82-4.88-1.84-3.58-1.05-5-1.74-6.3-3a7.6,7.6,0,0,1-2-5.57c0-5.7,4.74-9.8,11.32-9.8C75.53.24,79,2.13,79,4.8Z"/><path class="cls-1" d="M91.72,27.48a5.76,5.76,0,0,1-.46,2.94,3.54,3.54,0,0,1-6.11,0,5.27,5.27,0,0,1-.46-2.94V6.13c0-2.16.13-2.71.73-3.54A3.92,3.92,0,0,1,88.92,1h7.22c3.5,0,5.94.79,7.82,2.53a10.83,10.83,0,0,1,3.22,7.83,11.35,11.35,0,0,1-2.34,7c-1.8,2.21-4.37,3.26-7.78,3.26H91.72Zm3.55-12c2.85,0,4.69-1.66,4.69-4.14a4,4,0,0,0-4.32-4.24H91.72v8.38Z"/><path class="cls-1" d="M116.47,13.17h5.89a4.8,4.8,0,0,1,2.62.41,3.18,3.18,0,0,1,0,5.48,4.7,4.7,0,0,1-2.62.41h-5.89v5.94h6.58a4.7,4.7,0,0,1,2.62.41,3.18,3.18,0,0,1,0,5.48,4.72,4.72,0,0,1-2.62.41h-8.51c-3.68.18-5.29-1.43-5.11-5.11V6.13c0-2.12.14-2.71.74-3.54A3.92,3.92,0,0,1,113.67,1h9.38a4.69,4.69,0,0,1,2.62.42,3.17,3.17,0,0,1,0,5.47,4.61,4.61,0,0,1-2.62.42h-6.58Z"/><path class="cls-1" d="M149.27,4.8a3.16,3.16,0,0,1-3.13,3.26c-.69,0-.69,0-2.43-.64a9.67,9.67,0,0,0-3.13-.6c-2.07,0-3.55,1.06-3.55,2.53a2.09,2.09,0,0,0,1,1.75c.83.6.83.6,3.77,1.38,6.77,1.84,9.66,4.74,9.66,9.71a10.46,10.46,0,0,1-2.62,7c-1.93,2.11-5.15,3.26-9.06,3.26-6.12,0-10.44-2.16-10.44-5.2a3.22,3.22,0,0,1,3-3.35c.88,0,.88,0,4.23,1.28a10.14,10.14,0,0,0,3.45.69c2.35,0,3.87-1.29,3.87-3.22a2.43,2.43,0,0,0-1.2-2.21c-.87-.59-1.52-.82-4.87-1.84-3.59-1.05-5-1.74-6.31-3a7.63,7.63,0,0,1-2-5.57c0-5.7,4.73-9.8,11.31-9.8C145.78.24,149.27,2.13,149.27,4.8Z"/><path class="cls-1" d="M162,13.17h5.89a4.8,4.8,0,0,1,2.62.41,3.18,3.18,0,0,1,0,5.48,4.7,4.7,0,0,1-2.62.41H162v5.94h6.58a4.7,4.7,0,0,1,2.62.41,3.18,3.18,0,0,1,0,5.48,4.72,4.72,0,0,1-2.62.41h-8.51c-3.68.18-5.29-1.43-5.11-5.11V6.13c0-2.12.14-2.71.74-3.54A3.92,3.92,0,0,1,159.21,1h9.38a4.69,4.69,0,0,1,2.62.42,3.17,3.17,0,0,1,0,5.47,4.61,4.61,0,0,1-2.62.42H162Z"/></g></g><g id="Path_355" data-name="Path 355"><path class="cls-3" d="M51.12,14.32h-.39v-.46a10.12,10.12,0,0,0-20.23-.2v.66h-.38a1.87,1.87,0,0,0-1,3.44,11.57,11.57,0,0,0,23,0,1.87,1.87,0,0,0-1-3.44Zm-19.66-.46a9.16,9.16,0,0,1,18.32,0v.46h-1.5v-.46h0a7.64,7.64,0,0,0-15.28,0h0v.46h-1.5Zm15.84,0v.46H33.93v-.46a6.69,6.69,0,0,1,13.37,0ZM34,25l1.3-1.3,2,2-.66.66a.48.48,0,0,0-.1.17A10.44,10.44,0,0,1,34,25Zm0,0-.24-.2A2.31,2.31,0,0,0,34,25Zm-.4-.34-.1-.08Zm-.3-4.35,1.88-1.87,2,2-1.88,1.88ZM36,23l1.88-1.88,2,2L38,25Zm2.77,4.15a9.54,9.54,0,0,1-1.28-.31l.49-.48Zm-.2-6.72,2.06-2.06,2,2-2.06,2.06Zm3.1-2.4h3.26l-1.63,1.63Zm-3.78,1.72-1.71-1.72h3.42Zm-5.27-.14L31,18.06h3.16Zm-2.43-1.05,1.74,1.74-.9.9a10.28,10.28,0,0,1-.84-2.64Zm1.06,3.1c.08.15.16.3.25.45L32.61,21l2,2-1.35,1.35a10.87,10.87,0,0,1-2-2.68ZM31,21.24c.07.15.15.3.23.44-.09-.14-.16-.29-.24-.44Zm7.91,6,.24,0a1.9,1.9,0,0,1-.25,0Zm.66.08.14,0Zm.44,0h0Zm.6,0h-.31l-1.65-1.65,1.88-1.87,1.56,1.56a.49.49,0,0,0,.69,0,.48.48,0,0,0,0-.67l-1.56-1.56,2.06-2.06.78.78a.49.49,0,0,0,.69,0h0a.49.49,0,0,0,0-.69L44,20.38l2.32-2.32h4.85a10.61,10.61,0,0,1-10.53,9.29ZM51.71,16.89a.89.89,0,0,1-.49.2H30a.91.91,0,0,1,.11-1.82h21a.92.92,0,0,1,.59,1.62Z"/></g></g></g></g></svg>