<svg xmlns="http://www.w3.org/2000/svg" xmlns:xlink="http://www.w3.org/1999/xlink" width="414" height="242.569" viewBox="0 0 414 242.569"><defs><style>.a,.e,.f,.h{fill:none;}.b{fill:#d0e2f5;}.c{clip-path:url(#a);}.d{fill:#404ea7;}.e{stroke:#8aa6ec;stroke-width:20px;}.e,.f,.h,.j,.k,.l{stroke-miterlimit:10;}.f,.h,.j,.k,.l{stroke:#fff;}.f{stroke-width:11px;}.g{fill:#8aa6ec;}.h{stroke-width:5px;}.i{fill:#afc6f4;}.j{fill:#8bc34a;}.j,.k,.l{stroke-width:3px;}.k{fill:#43b4ed;}.l{fill:#ffc107;}</style><clipPath id="a"><rect class="a" width="414" height="242.569" transform="translate(1941.228 1285.704)"/></clipPath></defs><g transform="translate(-1941.228 -1285.704)"><rect class="b" width="414" height="242.569" transform="translate(1941.228 1285.704)"/><g class="c"><path class="d" d="M2112.252,1600.87l-163.366,22.664a11.81,11.81,0,0,0-9.742,14.927l12.048,42.469a11.814,11.814,0,0,0,6.469,7.528l56.444,25.7a11.816,11.816,0,0,0,9.747.021l112.433-50.628a11.814,11.814,0,0,0,5.977-15.5l-17.555-40.207A11.817,11.817,0,0,0,2112.252,1600.87Z"/><path class="e" d="M2393.835,1326.028c-17.406-6.165-37.61.845-50.562,14.005s-19.542,31.436-22.424,49.674-2.423,36.815-3.334,55.259-3.312,37.22-11.427,53.806c-6.885,14.071-17.547,25.894-26.068,39.039-28.266,43.6-31.294,98.324-33.467,150.24"/><path class="f" d="M1942.446,1553.55a112.343,112.343,0,0,1-43.7-8.386c-21.958-9.212-39.372-26.147-47.776-46.461l-2.106-5.092,48.577-189.679,3.422-3.27a52.3,52.3,0,0,1,35.858-14.206,49.749,49.749,0,0,1,29.117,9.312,52.342,52.342,0,0,1,20.029,27.767,84.293,84.293,0,0,1,2.683,17.746c.217,2.926.423,5.69.828,8.12,2.519,15.109,14.364,28.344,26.9,42.356,13.926,15.56,29.709,33.2,34.583,56.6,5.216,25.034-3.707,52.879-23.284,72.668-20.647,20.868-47.077,28.434-65.614,31.1a137.283,137.283,0,0,1-19.521,1.423Z"/><path class="g" d="M1866.257,1492.378c7.066,17.079,21.847,30.381,38.891,37.532s36.168,8.48,54.462,5.843c20.849-3,41.4-11.393,56.214-26.368s23.146-37.038,18.85-57.66c-8.072-38.744-55.1-60.567-61.61-99.6-1.328-7.96-.833-16.227-3.082-23.977a34.938,34.938,0,0,0-57.69-15.523Z"/><path class="f" d="M1914.466,1256.436c25.28,1.112,50.8,2.258,75.235,8.827s48.046,19.1,63.4,39.213c8.927,11.692,14.954,25.724,25.8,35.663,15.378,14.093,37.468,17.44,58.149,20.156l252.464,33.151"/><path class="d" d="M2057.8,1345.3c-6.053-6.476-12.2-18.609-19.247-23.988-6.824-5.208-15.427-5.5-23.013-.054-9.769,7.012-12.6,20.29-7.21,31.038,6.307,12.573,17.14,21.628,26.909,31.8a166.726,166.726,0,0,1,42.951,82.679,4.976,4.976,0,0,0,9.6.6l27.184-77.275a12.633,12.633,0,0,0-9.1-16.5C2087.789,1369.45,2070.1,1358.457,2057.8,1345.3Z"/><path class="f" d="M1984.551,1319.639l50.224-33.182,105.284-21.4,127.318-57.886"/><path class="f" d="M2159.734,1363.273"/><path class="f" d="M2051.593,1473.209"/><path class="f" d="M2051.3,1470.688a44.785,44.785,0,0,0,29.22,20.236q.749.146,1.5.263c16.763,2.633,32.945-7.455,38.645-23.439l37.259-104.48-28.4-156.1"/><line class="f" x2="72.4" y2="165.498" transform="translate(2093.521 1491.608)"/><path class="f" d="M2372.692,1615.752l-240.407-35.531-222.762,35.531"/><path class="f" d="M2267.377,1198.9,2256.669,1376l-37.264,129.907-12.9,85.282"/><line class="h" y1="56.877" x2="60.12" transform="translate(2006.55 1323.765)"/><path class="h" d="M2045.558,1433.087c9.388-15.065,26.883-23.773,44.507-25.882s35.452,1.647,52.374,7.007"/><line class="h" x2="47.564" y2="53.387" transform="translate(2035.802 1354.942)"/><path class="i" d="M2132.009,1319.638l-48.642,5.448v-25.835h48.642Z"/><path class="i" d="M2095.894,1286.845v6.617h36.116v-13.647Z"/><path class="i" d="M2077.49,1307.316h-13.75v-15.2l13.75-2.78Z"/><path class="d" d="M2143.228,1340.318c-.585-3.359-2.251-6.937-5.47-8.063-1.973-.69-4.141-.318-6.2.062l-9.523,1.759c-2.648.49-5.38,1.011-7.618,2.511s-3.867,4.25-3.22,6.865a6.713,6.713,0,0,0,3.953,4.251,19.859,19.859,0,0,0,5.848,1.281l19.139,2.2,1.772.218,3.011-1.032C2143.682,1347.2,2143.811,1343.679,2143.228,1340.318Z"/><path class="h" d="M2097.51,1348.059a20.567,20.567,0,0,1,10.6-17,36.067,36.067,0,0,1,10.794-3.279,168.422,168.422,0,0,1,31.714-2.679"/><rect class="i" width="66.924" height="37.495" transform="translate(2051.301 1214.888)"/><rect class="i" width="17.655" height="24.813" transform="translate(2009.049 1219.92)"/><rect class="i" width="17.655" height="24.813" transform="translate(1983.823 1219.92)"/><rect class="i" width="17.655" height="24.813" transform="translate(1958.597 1219.92)"/><path class="h" d="M2007.162,1269.672c10.219-3.59,21.092-7.658,27.368-16.486,3.476-4.891,5.194-10.856,5.833-16.822a105.715,105.715,0,0,0-.122-17.978"/><circle class="d" cx="2.843" cy="2.843" r="2.843" transform="translate(2034.766 1271.737)"/><circle class="d" cx="2.843" cy="2.843" r="2.843" transform="translate(2048.458 1268.894)"/><circle class="d" cx="2.843" cy="2.843" r="2.843" transform="translate(2123.121 1252.383)"/><circle class="d" cx="2.843" cy="2.843" r="2.843" transform="translate(2005.627 1257.47)"/><circle class="d" cx="2.843" cy="2.843" r="2.843" transform="translate(1943.803 1230.793)"/><circle class="d" cx="2.843" cy="2.843" r="2.843" transform="translate(1986.398 1300.156)"/><circle class="d" cx="2.843" cy="2.843" r="2.843" transform="translate(2014.622 1309.326)"/><circle class="d" cx="2.843" cy="2.843" r="2.843" transform="translate(2151.991 1269.672)"/><circle class="d" cx="2.843" cy="2.843" r="2.843" transform="translate(2218.521 1320.921)"/><circle class="d" cx="2.843" cy="2.843" r="2.843" transform="translate(2236.942 1320.921)"/><circle class="d" cx="2.843" cy="2.843" r="2.843" transform="translate(2188.884 1377.05)"/><circle class="d" cx="2.843" cy="2.843" r="2.843" transform="translate(2296.427 1456.978)"/><circle class="d" cx="2.843" cy="2.843" r="2.843" transform="translate(2341.969 1370.34)"/><circle class="d" cx="2.843" cy="2.843" r="2.843" transform="translate(2273.321 1263.404)"/><circle class="d" cx="2.843" cy="2.843" r="2.843" transform="translate(2281.851 1290.619)"/><circle class="d" cx="2.843" cy="2.843" r="2.843" transform="translate(2339.126 1290.619)"/><circle class="d" cx="2.843" cy="2.843" r="2.843" transform="translate(2327.989 1321.17)"/><circle class="d" cx="2.843" cy="2.843" r="2.843" transform="translate(2344.813 1467.696)"/><circle class="d" cx="2.843" cy="2.843" r="2.843" transform="translate(2071.804 1314.441)"/><circle class="d" cx="2.843" cy="2.843" r="2.843" transform="translate(2086.02 1330.982)"/><circle class="d" cx="2.843" cy="2.843" r="2.843" transform="translate(2118.375 1366.961)"/><circle class="d" cx="2.843" cy="2.843" r="2.843" transform="translate(2063.827 1463.783)"/><circle class="d" cx="2.843" cy="2.843" r="2.843" transform="translate(2139.595 1567.918)"/><circle class="d" cx="2.843" cy="2.843" r="2.843" transform="translate(2041.983 1577.378)"/><circle class="d" cx="2.843" cy="2.843" r="2.843" transform="translate(2009.933 1582.735)"/><circle class="d" cx="2.843" cy="2.843" r="2.843" transform="translate(1949.349 1593.885)"/><circle class="d" cx="2.843" cy="2.843" r="2.843" transform="translate(2193.288 1577.049)"/><circle class="d" cx="2.843" cy="2.843" r="2.843" transform="translate(2234.098 1604.343)"/><circle class="d" cx="2.843" cy="2.843" r="2.843" transform="translate(2276.642 1587.146)"/><circle class="d" cx="2.843" cy="2.843" r="2.843" transform="translate(2318.203 1620.85)"/><circle class="d" cx="2.843" cy="2.843" r="2.843" transform="translate(2183.594 1631.862)"/><circle class="d" cx="2.843" cy="2.843" r="2.843" transform="translate(2056.119 1494.556)"/><circle class="d" cx="2.843" cy="2.843" r="2.843" transform="translate(2329.989 1514.014)"/><circle class="d" cx="2.843" cy="2.843" r="2.843" transform="translate(2344.813 1528.273)"/><circle class="d" cx="2.843" cy="2.843" r="2.843" transform="translate(2209.948 1480.849)"/><circle class="d" cx="2.843" cy="2.843" r="2.843" transform="translate(2121.068 1520.125)"/><circle class="d" cx="2.843" cy="2.843" r="2.843" transform="translate(2187.601 1466.316)"/><circle class="d" cx="2.843" cy="2.843" r="2.843" transform="translate(2216.564 1465.076)"/><circle class="d" cx="2.843" cy="2.843" r="2.843" transform="translate(2154.601 1403.148)"/><circle class="d" cx="2.843" cy="2.843" r="2.843" transform="translate(2078.507 1477.224)"/><rect class="i" width="13.621" height="7.901" transform="translate(2023.678 1305.383) rotate(-39.928)"/><line class="h" y1="20.898" x2="109.027" transform="translate(2151.991 1304.042)"/><path class="f" d="M2266.381,1253.9a44.649,44.649,0,0,1,31.636,10.9c10.188,8.947,15.739,22.061,24.975,31.989,8.323,8.947,19.383,14.988,30.923,19s23.642,6.13,35.682,8.23"/><path class="f" d="M2129.721,1435.17l89.685,70.738h186.922"/><path class="d" d="M2264.254,1519.71l-30.687-.01a4.12,4.12,0,0,0-4.073,3.5l-8.082,52.913a4.12,4.12,0,0,0,3.45,4.694l.038.006,13.161,1.883a4.108,4.108,0,0,0,4.561-3.019,161.8,161.8,0,0,1,24.959-53.424,4.119,4.119,0,0,0-3.327-6.543Z"/><path class="d" d="M2366.426,1221.881l-30.2-16.341a4.486,4.486,0,0,0-3.3-.385l-51.468,13.94a4.481,4.481,0,0,0-3.3,3.971l-1.047,13.219a4.461,4.461,0,0,0,3.858,4.788c12.36,1.572,23.564,9.809,32,19.165,2.962,3.283,5.8,7.037,9.959,8.536,3.833,1.38,8.066.572,12.055-.25l36.314-7.482a4.479,4.479,0,0,0,3.491-5.257l-6.1-30.834A4.481,4.481,0,0,0,2366.426,1221.881Z"/><path class="h" d="M1995.248,1542.953a155.574,155.574,0,0,0,49.577,51.744"/><path class="h" d="M2141.383,1413.69l103.81,1.991"/><path class="h" d="M2375.863,1508.381c-21.419,1.4-41.4,16.117-49.091,36.157-4.437,11.56-4.955,24.179-6.481,36.467a217.421,217.421,0,0,1-21.639,71.054"/><path class="i" d="M2199.28,1358.044l45.912,5.228,1.36-29.447h-47.273Z"/><rect class="i" width="19.437" height="28.328" transform="translate(2171.158 1328.269)"/><path class="i" d="M2187.188,1256.436l-21.447,9.721,3.97,42.522,17.477-4.766Z"/><path class="i" d="M2200.205,1258.919v49.828l46.347-12.638,3.593-59.826Z"/><rect class="i" width="12.544" height="12.544" transform="translate(1994.851 1279.815)"/><rect class="i" width="12.544" height="12.544" transform="translate(1973.346 1274.58)"/><rect class="i" width="12.544" height="12.544" transform="translate(1952.325 1268.308)"/><rect class="i" width="27.294" height="53.761" transform="translate(2335.75 1401.811)"/><rect class="i" width="56.242" height="12.131" transform="translate(2326.927 1477.627)"/><path class="i" d="M2268.37,1453.09v-23.158h-10.092l-16.542,63.41h48.247V1453.09Z"/><path class="i" d="M2268.024,1391.61l-6.437,23.076h40.527v-19.642Z"/><rect class="i" width="20.264" height="20.264" transform="translate(2281.851 1423.729)"/><path class="d" d="M2144.06,1225.657l3.319,18.859a2.758,2.758,0,0,0,3.192,2.238,2.787,2.787,0,0,0,.678-.213l35.306-16.294a2.757,2.757,0,0,0-.973-5.255l-38.625-2.565a2.759,2.759,0,0,0-2.933,2.571A2.7,2.7,0,0,0,2144.06,1225.657Z"/><path class="i" d="M2154.6,1469.2l-15.286-12.226-15.406,33.51,15.028,14.684Z"/><path class="i" d="M2184.5,1493.118l-24.548-19.634L2144,1510.118l23.219,22.687Z"/><path class="i" d="M2189.853,1497.4l-17.571,40.353,24.1,23.55,8.891-51.567Z"/><path class="i" d="M2162.888,1602.688l7.237,25.193h28.849v-25.193h-36.086"/><rect class="i" width="14.196" height="29.742" transform="translate(2211.136 1605.17)"/><rect class="i" width="61.343" height="18.61" transform="translate(2173.226 1386.621)"/><rect class="i" width="11.855" height="5.376" transform="translate(2165.093 1374.517)"/><path class="i" d="M2198.452,1423.729h-5.165v28.4h27.634l8.547-28.4Z"/><rect class="i" width="17.507" height="5.79" transform="translate(2158.2 1420.834)"/><rect class="i" width="17.507" height="5.79" transform="translate(2158.2 1430.192)"/><rect class="i" width="17.507" height="5.79" transform="translate(2158.2 1439.551)"/><line class="h" x2="69.465" transform="translate(2162.023 1460.649)"/><path class="d" d="M2092.687,1538.773l-10.1,32.98a2.662,2.662,0,0,0,2.93,3.413l26.354-3.849a2.664,2.664,0,0,0,1.94-3.93l-16.251-29.132a2.662,2.662,0,0,0-4.873.518Z"/><line class="h" y1="9.084" x2="58.723" transform="translate(2316.105 1275.955)"/><path class="i" d="M2312.953,1332.516l1.5-23.769-41.131-1.163-1.3,24.932Z"/><path class="i" d="M2271.705,1339.323l-1.3,24.776,40.322,4.49,1.845-29.266Z"/><path class="i" d="M2321.144,1533.085l1.991-9.623h-17.162l-5.067,9.623Z"/><path class="i" d="M2317.077,1552.727l2.829-13.663h-22.148l-7.194,13.663Z"/><path class="i" d="M2287.415,1558.709l-11.6,22.029,34.709,3.651,5.316-25.681Z"/><rect class="i" width="33.023" height="35.292" transform="translate(2337.258 1539.065)"/><rect class="i" width="42.704" height="10.84" transform="translate(2329.989 1584.664)"/><line class="h" x2="86.081" y2="84.639" transform="translate(2044.826 1596.728)"/><line class="h" x1="11.304" y2="102.283" transform="translate(1977.068 1605.826)"/><line class="h" x2="70.035" y2="101.885" transform="translate(2109.395 1483.693)"/><rect class="i" width="26.26" height="15.492" transform="translate(2270.615 1616.939)"/><path class="i" d="M2328.1,1621.678l-7.9,26.053h27.135l-1.241-23.047Z"/><rect class="i" width="55.277" height="22.745" transform="translate(1946.604 1565.988)"/><path class="i" d="M2049.227,1511.814l-28.364,41.736,31.557,15.275,19.212-48.051Z"/><path class="i" d="M2132.18,1553.617l4.718,9.476,14.962-4.411-6.37-9.965Z"/><path class="i" d="M2143.21,1545.152l-7.891-12.346-11.407,4.2,6.416,12.886Z"/><ellipse class="i" cx="13.002" cy="3.282" rx="13.002" ry="3.282" transform="translate(2185.592 1413.068)"/><ellipse class="i" cx="13.002" cy="3.282" rx="13.002" ry="3.282" transform="translate(2300.57 1332.759)"/><ellipse class="i" cx="13.002" cy="3.282" rx="13.002" ry="3.282" transform="translate(2217.588 1469.536)"/><ellipse class="i" cx="13.002" cy="3.282" rx="13.002" ry="3.282" transform="translate(2174.599 1483.144)"/><ellipse class="i" cx="13.002" cy="3.282" rx="13.002" ry="3.282" transform="translate(2025.49 1507.437)"/><ellipse class="i" cx="13.002" cy="3.282" rx="13.002" ry="3.282" transform="translate(2148 1458.475)"/><ellipse class="i" cx="13.002" cy="3.282" rx="13.002" ry="3.282" transform="translate(2079.981 1492.009)"/><ellipse class="i" cx="13.002" cy="3.282" rx="13.002" ry="3.282" transform="translate(2006.394 1573.748)"/><ellipse class="i" cx="13.002" cy="3.282" rx="13.002" ry="3.282" transform="translate(2121.996 1580.734)"/><ellipse class="i" cx="13.002" cy="3.282" rx="13.002" ry="3.282" transform="translate(2243.592 1596.162)"/><ellipse class="i" cx="13.002" cy="3.282" rx="13.002" ry="3.282" transform="translate(2142.625 1339.767)"/><ellipse class="i" cx="13.002" cy="3.282" rx="13.002" ry="3.282" transform="translate(2134.998 1327.62)"/></g><path class="j" d="M2161,1309.766a13,13,0,0,0-26,0c0,7.182,13,17.854,13,17.854S2161,1316.948,2161,1309.766Z"/><path class="j" d="M2168.63,1325.194a13,13,0,0,0-26,0c0,7.181,13,17.854,13,17.854S2168.63,1332.375,2168.63,1325.194Z"/><path class="k" d="M2243.593,1454.963a13,13,0,0,0-26,0c0,7.181,13,17.854,13,17.854S2243.593,1462.144,2243.593,1454.963Z"/><path class="k" d="M2174.006,1443.9a13,13,0,0,0-26,0c0,7.181,13,17.854,13,17.854S2174.006,1451.083,2174.006,1443.9Z"/><path class="k" d="M2200.6,1466.734a13,13,0,0,0-26,0h0c0,7.181,13,17.854,13,17.854S2200.6,1473.914,2200.6,1466.734Z"/><path class="k" d="M2327.2,1317.658a13,13,0,0,0-26,0c0,7.181,13,17.854,13,17.854S2327.2,1324.835,2327.2,1317.658Z"/><path class="j" d="M2051.5,1492.865a13,13,0,0,0-26,0c0,7.181,13,17.854,13,17.854S2051.5,1500.046,2051.5,1492.865Z"/><path class="l" d="M2269.6,1360.5a13,13,0,0,0-26,0c0,7.182,13,17.855,13,17.855S2269.6,1367.678,2269.6,1360.5Z"/><path class="l" d="M2105.988,1477.436a13,13,0,0,0-26,0c0,7.182,13,17.854,13,17.854S2105.988,1484.618,2105.988,1477.436Z"/></g></svg>