<svg xmlns="http://www.w3.org/2000/svg" width="30.17" height="35" viewBox="0 0 30.17 35"><defs><style>.a{fill:#ad253c;}.b{fill:#fff;}</style></defs><path class="a" d="M1592.846,995.02a15.089,15.089,0,0,0-30.17,0c0,8.145,15.085,20.252,15.085,20.252S1592.846,1003.165,1592.846,995.02Z" transform="translate(-1562.676 -980.272)"/><g transform="translate(7.709 5.02)"><path class="b" d="M1674.564,1124.337a2.237,2.237,0,0,0-1.633-.593h-.668c.028-.666.029-1.151.029-1.226a.511.511,0,0,0-.535-.524h-12.669a.507.507,0,0,0-.535.469.494.494,0,0,0,0,.055,30.1,30.1,0,0,0,.4,4.666,9.546,9.546,0,0,0,1.451,4.025h-1.5a.592.592,0,0,0-.411.153.431.431,0,0,0-.123.428c.022.381.5,2.422,2.277,2.493h9.585c1.859-.074,2.239-2.244,2.275-2.5h0a.534.534,0,0,0-.1-.406.173.173,0,0,0-.021-.022.586.586,0,0,0-.4-.15h-1.521a5.1,5.1,0,0,0,.806-1.571h1.629a2.029,2.029,0,0,0,2.211-2.162v-1.6A2.029,2.029,0,0,0,1674.564,1124.337Zm-14.964,7.946h11.716c-.163.443-.487,1-1.093,1.034H1660.7C1660.074,1133.288,1659.755,1132.725,1659.6,1132.284Zm9.019-1.038h-6.35c-.993-.032-1.794-1.52-2.253-4.185a35.8,35.8,0,0,1-.394-3.993h11.644a24.505,24.505,0,0,1-.393,3.969.172.172,0,0,0-.005.022C1670.222,1130.791,1669.075,1131.231,1668.618,1131.246Zm5.463-5.375v1.643h0c0,.767-.365,1.124-1.15,1.124h-1.318c.127-.479.232-.968.314-1.455a23.354,23.354,0,0,0,.285-2.437h.721C1673.715,1124.747,1674.081,1125.1,1674.081,1125.871Z" transform="translate(-1658.356 -1115.85)"/><path class="b" d="M1696.935,1046.538c-.431.808-1.022,1.915.15,3.025a.521.521,0,0,0,.36.155h.014a.523.523,0,0,0,.357-.139l.016-.016a.5.5,0,0,0,.016-.714l-.02-.019c-.593-.547-.419-.96.031-1.84.411-.7,1.027-1.762-.026-2.831a.528.528,0,0,0-.734-.019l-.016.016a.5.5,0,0,0-.017.714l.016.016c.448.466.325.8-.138,1.632Z" transform="translate(-1693.333 -1044.001)"/><path class="b" d="M1734.555,1046.539c-.432.808-1.022,1.915.15,3.025a.528.528,0,0,0,.731.016l.016-.016a.5.5,0,0,0,.017-.714l-.02-.019c-.592-.548-.418-.962.033-1.845l.01-.02c.4-.746.948-1.768-.038-2.808a.527.527,0,0,0-.733-.019l-.017.016a.5.5,0,0,0-.016.714l.015.015c.445.467.316.819-.139,1.633Z" transform="translate(-1727.921 -1044)"/><path class="b" d="M1771.737,1046.539c-.431.808-1.022,1.915.15,3.025a.527.527,0,0,0,.73.016l.017-.016a.5.5,0,0,0,.016-.714l-.02-.019c-.592-.548-.418-.961.032-1.842.411-.7,1.027-1.762-.026-2.831a.527.527,0,0,0-.733-.019l-.016.016a.5.5,0,0,0-.016.714l.016.015c.445.467.316.819-.139,1.633Z" transform="translate(-1762.108 -1044)"/></g></svg>