<svg xmlns="http://www.w3.org/2000/svg" width="42.469" height="41.352" viewBox="0 0 42.469 41.352"><defs><style>.a{fill:#404ea7;}</style></defs><g transform="translate(0 0)"><path class="a" d="M887.207,630.051h-.66v-.77a17.366,17.366,0,0,0-34.726,0v.77h-.661a3.183,3.183,0,0,0-3.211,3.15,3.131,3.131,0,0,0,1.458,2.638,19.891,19.891,0,0,0,39.554,0,3.126,3.126,0,0,0,1.458-2.635A3.186,3.186,0,0,0,887.207,630.051Zm-33.745-.77a15.724,15.724,0,0,1,31.443,0v.77h-2.574v-.77H882.3a13.123,13.123,0,0,0-26.241,0h-.026v.77h-2.575Zm27.2,0v.77H857.705v-.77a11.481,11.481,0,0,1,22.958,0Zm-22.842,18.8,2.239-2.2,3.389,3.321-1.133,1.111a.871.871,0,0,0-.182.277A18.294,18.294,0,0,1,857.82,648.085Zm-.016-.012c-.141-.11-.278-.224-.415-.339C857.527,647.848,857.663,647.963,857.8,648.073Zm-.694-.571c-.057-.049-.111-.1-.167-.15C857,647.4,857.054,647.452,857.11,647.5Zm-.5-7.327,3.228-3.163,3.454,3.389-3.228,3.164Zm4.639,4.552,3.229-3.167,3.386,3.325-3.225,3.162ZM866,651.715a18.423,18.423,0,0,1-2.2-.524l.835-.818Zm-.347-11.315,3.536-3.469,3.386,3.324-3.534,3.466Zm5.313-4.048h5.589l-2.794,2.741Zm-6.5,2.886-2.943-2.886h5.882Zm-9.05-.226-2.713-2.66h5.425Zm-4.174-1.768,2.989,2.931-1.554,1.523a17.479,17.479,0,0,1-1.435-4.454Zm1.827,5.228q.2.379.43.748l1.917-1.881,3.455,3.388L856.558,647A17.938,17.938,0,0,1,853.076,642.471Zm-.389-.766c.12.254.247.5.381.752C852.935,642.209,852.809,641.958,852.688,641.7Zm13.57,10.051c.138.022.276.045.416.065C866.533,651.8,866.4,651.778,866.258,651.756Zm1.136.148c.079.008.159.013.239.02C867.553,651.916,867.473,651.911,867.394,651.9Zm.754.055c.122.007.245.013.369.016C868.393,651.969,868.27,651.965,868.148,651.958Zm1.034.031c-.182,0-.362-.007-.542-.012l-2.824-2.768,3.228-3.162,2.68,2.628a.855.855,0,0,0,1.186,0,.815.815,0,0,0,0-1.163l-2.68-2.628,3.533-3.469,1.34,1.315a.849.849,0,0,0,1.186,0,.815.815,0,0,0,0-1.163l-1.34-1.312,3.981-3.9h8.327A18.1,18.1,0,0,1,869.182,651.989Zm19.029-17.606a1.572,1.572,0,0,1-.828.348c-.059.006-.118.009-.177.009H851.16c-.059,0-.118,0-.177-.009a1.575,1.575,0,0,1-.83-.351,1.514,1.514,0,0,1-.561-1.179,1.468,1.468,0,0,1,.167-.685,1.565,1.565,0,0,1,1.4-.854h36.047a1.574,1.574,0,0,1,1.406.854,1.5,1.5,0,0,1,.164.685A1.525,1.525,0,0,1,888.211,634.383Z" transform="translate(-847.949 -612.248)"/></g></svg>