<svg xmlns="http://www.w3.org/2000/svg" width="43.254" height="50.311" viewBox="0 0 53.3 53.3"><defs><style>.a{fill:#62c79d;stroke:#62c79d;stroke-linecap:round;stroke-linejoin:round;stroke-width:1.3px;}</style></defs><g transform="translate(0.65 0.65)"><g transform="translate(20.8)"><path class="a" d="M2896.433,1555.832a5.2,5.2,0,1,0,5.2,5.2A5.2,5.2,0,0,0,2896.433,1555.832Zm0,8.667a3.467,3.467,0,1,1,3.467-3.467A3.467,3.467,0,0,1,2896.433,1564.5Z" transform="translate(-2891.233 -1555.832)"/></g><g transform="translate(18.2 11.267)"><path class="a" d="M2890.867,1606.243h-.2l-.183.091a6.911,6.911,0,0,1-6.159,0l-.183-.091h-.2a4.339,4.339,0,0,0-4.333,4.333v5.2a2.6,2.6,0,0,0,2.6,2.6h10.4a2.6,2.6,0,0,0,2.6-2.6v-5.2A4.338,4.338,0,0,0,2890.867,1606.243Zm2.6,9.533a.867.867,0,0,1-.867.867h-10.4a.867.867,0,0,1-.867-.867v-5.2a2.6,2.6,0,0,1,2.416-2.593,8.674,8.674,0,0,0,7.3,0,2.6,2.6,0,0,1,2.416,2.593Z" transform="translate(-2879.6 -1606.243)"/></g><g transform="translate(39 28.6)"><path class="a" d="M2977.867,1683.8a5.2,5.2,0,1,0,5.2,5.2A5.2,5.2,0,0,0,2977.867,1683.8Zm0,8.667a3.467,3.467,0,1,1,3.467-3.467A3.466,3.466,0,0,1,2977.867,1692.466Z" transform="translate(-2972.667 -1683.799)"/></g><g transform="translate(36.4 39.867)"><path class="a" d="M2972.3,1734.211h-.2l-.183.087a6.911,6.911,0,0,1-6.159,0l-.183-.087h-.2a4.338,4.338,0,0,0-4.333,4.333v5.2a2.6,2.6,0,0,0,2.6,2.6h10.4a2.6,2.6,0,0,0,2.6-2.6v-5.2A4.338,4.338,0,0,0,2972.3,1734.211Zm2.6,9.533a.866.866,0,0,1-.866.866h-10.4a.867.867,0,0,1-.867-.866v-5.2a2.6,2.6,0,0,1,2.416-2.593,8.672,8.672,0,0,0,7.3,0,2.6,2.6,0,0,1,2.416,2.593Z" transform="translate(-2961.034 -1734.211)"/></g><g transform="translate(2.6 28.6)"><path class="a" d="M2815,1683.8a5.2,5.2,0,1,0,5.2,5.2A5.2,5.2,0,0,0,2815,1683.8Zm0,8.667a3.467,3.467,0,1,1,3.467-3.467A3.467,3.467,0,0,1,2815,1692.466Z" transform="translate(-2809.799 -1683.799)"/></g><g transform="translate(0 39.867)"><path class="a" d="M2809.433,1734.211h-.2l-.183.087a6.911,6.911,0,0,1-6.159,0l-.183-.087h-.2a4.338,4.338,0,0,0-4.333,4.333v5.2a2.6,2.6,0,0,0,2.6,2.6h10.4a2.6,2.6,0,0,0,2.6-2.6v-5.2A4.338,4.338,0,0,0,2809.433,1734.211Zm2.6,9.533a.867.867,0,0,1-.867.866h-10.4a.866.866,0,0,1-.866-.866v-5.2a2.6,2.6,0,0,1,2.415-2.593,8.673,8.673,0,0,0,7.3,0,2.6,2.6,0,0,1,2.416,2.593Z" transform="translate(-2798.166 -1734.211)"/></g><g transform="translate(17.333 42.466)"><g transform="translate(0 0)"><path class="a" d="M2892.986,1747.389v0a.867.867,0,0,0-1.137-.458h0a19.224,19.224,0,0,1-12.361.851l.811-.238a.867.867,0,0,0-.487-1.664l-3.467,1.017c-.013,0-.022.015-.035.019a.845.845,0,0,0-.223.124.689.689,0,0,0-.087.054.836.836,0,0,0-.212.295.868.868,0,0,0-.066.358,2.612,2.612,0,0,0,.087.347c.005.012,0,.026.01.038l1.733,3.317a.867.867,0,0,0,1.538-.8l-.706-1.349a20.86,20.86,0,0,0,14.143-.77A.867.867,0,0,0,2892.986,1747.389Z" transform="translate(-2875.72 -1745.842)"/></g></g><g transform="translate(32.933 6.784)"><g transform="translate(0 0)"><path class="a" d="M2961.734,1602.19a.867.867,0,0,0-1.226,0l-1.226,1.226a20.769,20.769,0,0,0-12.555-17.16.867.867,0,0,0-.68,1.595,19.037,19.037,0,0,1,11.463,15.317l-.977-.978a.867.867,0,0,0-1.226,1.225l2.6,2.6a.867.867,0,0,0,1.226,0h0l2.6-2.6A.867.867,0,0,0,2961.734,1602.19Z" transform="translate(-2945.521 -1586.186)"/></g></g><g transform="translate(5.2 5.215)"><g transform="translate(0 0)"><path class="a" d="M2835.274,1581.454a.775.775,0,0,0-.022-.15c0-.008-.009-.013-.013-.022s0-.015,0-.022a.867.867,0,0,0-.081-.12.882.882,0,0,0-.1-.143.822.822,0,0,0-.169-.115.723.723,0,0,0-.1-.07l-3.467-1.583a.867.867,0,0,0-.719,1.575l1.795.821a20.768,20.768,0,0,0-10.968,18.324.867.867,0,1,0,1.733,0,19.037,19.037,0,0,1,9.38-16.418l-.627,1.309a.867.867,0,0,0,.4,1.155.85.85,0,0,0,.375.087.867.867,0,0,0,.78-.491l1.733-3.617a.04.04,0,0,1,.007-.027.81.81,0,0,0,.047-.184.9.9,0,0,0,.033-.143A.842.842,0,0,0,2835.274,1581.454Z" transform="translate(-2821.433 -1579.164)"/></g></g></g></svg>
