<svg xmlns="http://www.w3.org/2000/svg" width="50.989" height="51" viewBox="0 0 36.914 45"><defs><style>.a{fill:#62c79d;}</style></defs><path class="a" d="M49.955,45a1.318,1.318,0,0,0,1.318-1.318V31.293a23.859,23.859,0,0,1,14.085.28,26.328,26.328,0,0,0,16.654,0,1.318,1.318,0,0,0,.9-1.251V9.229a1.318,1.318,0,0,0-1.735-1.251,23.844,23.844,0,0,1-14.987,0A26.33,26.33,0,0,0,52.124,7.26a3.953,3.953,0,1,0-3.488.424v36A1.318,1.318,0,0,0,49.955,45Zm15.4-34.521a26.329,26.329,0,0,0,14.919.513V29.352a23.86,23.86,0,0,1-14.085-.28,26.319,26.319,0,0,0-14.919-.512V10.2a23.86,23.86,0,0,1,14.085.28Zm-15.4-7.842a1.318,1.318,0,1,1-1.318,1.318A1.32,1.32,0,0,1,49.955,2.637Z" transform="translate(-46)"/><path class="a" d="M192.206,157.5a4.409,4.409,0,0,0-3.3,1.438,4.409,4.409,0,0,0-3.3-1.438A4.568,4.568,0,0,0,181,162.121c0,2.74,2.261,4.5,5.389,6.939.542.422,1.1.859,1.7,1.335a1.318,1.318,0,0,0,1.647,0c.594-.475,1.155-.912,1.7-1.335,3.129-2.438,5.389-4.2,5.389-6.939A4.568,4.568,0,0,0,192.206,157.5Zm-2.4,9.48c-.294.229-.593.462-.9.7-.308-.242-.607-.475-.9-.7-2.874-2.239-4.373-3.472-4.373-4.859a1.918,1.918,0,0,1,1.978-1.984,2.336,2.336,0,0,1,2.034,1.7,1.31,1.31,0,0,0,2.523,0,2.336,2.336,0,0,1,2.034-1.7,1.918,1.918,0,0,1,1.978,1.984C194.184,163.508,192.684,164.741,189.81,166.98Z" transform="translate(-169.135 -143.657)"/></svg>
