<svg xmlns="http://www.w3.org/2000/svg" width="50.989" height="51" viewBox="0 0 50.989 51"><defs><style>.a{fill:#62c79d;}</style></defs><g transform="translate(9.859)"><path class="a" d="M129.232,2.888a8.51,8.51,0,0,0-13.5.949c-.135.188-.261.376-.379.563-.118-.186-.244-.374-.379-.563a8.51,8.51,0,0,0-13.5-.949,9.959,9.959,0,0,0-2.438,6.652c0,2.741,1.064,5.271,3.347,7.96a72.264,72.264,0,0,0,8.16,7.552c1.223,1.032,2.488,2.1,3.831,3.264a1.494,1.494,0,0,0,1.957,0c1.344-1.164,2.608-2.232,3.831-3.264,2.125-1.794,3.961-3.343,5.554-4.846,3.092-2.918,5.954-6.229,5.954-10.667A9.958,9.958,0,0,0,129.232,2.888Zm-5.566,15.146c-1.533,1.446-3.339,2.971-5.43,4.736-.93.785-1.885,1.591-2.882,2.446-1-.855-1.952-1.661-2.883-2.446-6.514-5.5-10.446-8.817-10.446-13.229,0-3.735,2.544-6.552,5.918-6.552A5.5,5.5,0,0,1,112.5,5.51a10.054,10.054,0,0,1,1.416,2.806,1.494,1.494,0,0,0,2.879,0c.015-.053,1.527-5.328,5.972-5.328,3.374,0,5.918,2.817,5.918,6.552C128.682,12.246,127.276,14.627,123.666,18.033Z" transform="translate(-99.036 0)"/></g><g transform="translate(0 29.486)"><path class="a" d="M46.564,296.621a4.5,4.5,0,0,0-3.28,1.427l-4.39,4.713a4.489,4.489,0,0,0-4.28-3.153h-6.9a3.969,3.969,0,0,1-2.623-.99,10.478,10.478,0,0,0-13.7-.095,4.478,4.478,0,0,0-3.662-1.9H1.551a1.494,1.494,0,0,0-1.494,1.494v17.926a1.494,1.494,0,0,0,1.494,1.494H7.725A4.471,4.471,0,0,0,11.094,316l.885.249a34.355,34.355,0,0,0,9.3,1.282H34.614a10.507,10.507,0,0,0,8.365-4.183l7.172-9.562h0a4.481,4.481,0,0,0-3.587-7.168ZM9.219,313.053a1.5,1.5,0,0,1-1.494,1.494H3.045V299.609H7.725A1.5,1.5,0,0,1,9.219,301.1ZM47.761,302h0l-7.172,9.562a7.5,7.5,0,0,1-5.975,2.988H21.276a31.369,31.369,0,0,1-8.489-1.17l-.584-.164c0-.053,0-.106,0-.159V301.778l1.041-.916a7.485,7.485,0,0,1,9.869,0,6.954,6.954,0,0,0,4.6,1.734h6.9a1.494,1.494,0,1,1,0,2.988H24a1.494,1.494,0,1,0,0,2.988H35.615a4.5,4.5,0,0,0,3.279-1.427l6.576-7.06a1.48,1.48,0,0,1,1.094-.476,1.5,1.5,0,0,1,1.494,1.494A1.479,1.479,0,0,1,47.761,302Z" transform="translate(-0.057 -296.021)"/></g></svg>