<svg xmlns="http://www.w3.org/2000/svg" width="30.17" height="35" viewBox="0 0 30.17 35"><defs><style>.a{fill:#37bee2;}.b{fill:#fff;}</style></defs><path class="a" d="M2029.566,995.02a15.089,15.089,0,0,0-30.17,0c0,8.145,15.085,20.252,15.085,20.252S2029.566,1003.165,2029.566,995.02Z" transform="translate(-1999.396 -980.272)"/><path class="b" d="M2085.955,1081.1h-1.091v-.261a.513.513,0,0,0-.38-.509,10.71,10.71,0,0,0-2.685-.335,7.93,7.93,0,0,1-9.889,0,10.761,10.761,0,0,0-2.688.336.511.511,0,0,0-.379.508v.257h-1.079a.518.518,0,0,0-.523.511v11.455a.5.5,0,0,0,.153.361.525.525,0,0,0,.369.15.532.532,0,0,0,.255-.065h0a13,13,0,0,1,8.71-.7.157.157,0,0,0,.038,0h.08a.537.537,0,0,0,.115,0l.02,0a12.914,12.914,0,0,1,8.694.691l.016.01a.53.53,0,0,0,.715-.187.5.5,0,0,0,.07-.252v-11.455A.518.518,0,0,0,2085.955,1081.1Zm-3.964,10.2a16.3,16.3,0,0,1,2.285.174.521.521,0,0,0,.6-.428.445.445,0,0,0,.006-.081v-8.838h.564l-.013,10.145a13.946,13.946,0,0,0-4.728-.907A9.576,9.576,0,0,1,2081.991,1091.3Zm1.831-.913a16.732,16.732,0,0,0-1.828-.109,9.289,9.289,0,0,0-4.613,1.025v-8.6a5.968,5.968,0,0,1,4.421-1.664,10.26,10.26,0,0,1,2.02.207Zm-12.121-.1a16.793,16.793,0,0,0-1.818.106v-9.142a10.191,10.191,0,0,1,2.02-.207,5.941,5.941,0,0,1,4.422,1.663l.01,8.6a9.208,9.208,0,0,0-4.612-1.023Zm-2.332,1.2a.628.628,0,0,0,.085-.006,16.269,16.269,0,0,1,2.271-.178,9.535,9.535,0,0,1,1.287.065,13.956,13.956,0,0,0-4.725.906v-10.145h.565v8.84A.517.517,0,0,0,2069.368,1091.484Z" transform="translate(-2061.774 -1072.144)"/></svg>