<svg xmlns="http://www.w3.org/2000/svg" width="43.254" height="50.311" viewBox="0 0 43.254 50.311"><defs><style>.a{fill:#62c79d;}.b{fill:#fff;stroke:#fff;stroke-width:0.5px;}</style></defs><path class="a" d="M1255.4,172.24a21.631,21.631,0,0,0-43.254,0c0,11.708,21.627,29.111,21.627,29.111S1255.4,183.948,1255.4,172.24Z" transform="translate(-1212.145 -151.04)"/><path class="b" d="M1253.322,175.6h-.519v-.6a13.652,13.652,0,0,0-27.3,0v.6h-.519a2.5,2.5,0,0,0-2.524,2.475,2.46,2.46,0,0,0,1.146,2.073,15.638,15.638,0,0,0,31.094,0,2.455,2.455,0,0,0,1.146-2.07A2.5,2.5,0,0,0,1253.322,175.6Zm-26.527-.6a12.361,12.361,0,0,1,24.718,0v.6h-2.024v-.6h-.021a10.316,10.316,0,0,0-20.628,0h-.021v.6H1226.8Zm21.382,0v.6H1230.13v-.6a9.025,9.025,0,0,1,18.047,0Zm-17.956,14.773,1.76-1.725,2.665,2.609-.891.873a.659.659,0,0,0-.143.218A14.383,14.383,0,0,1,1230.221,189.765Zm-.012-.009c-.111-.087-.219-.176-.327-.266C1229.99,189.579,1230.1,189.67,1230.209,189.756Zm-.546-.449c-.045-.038-.087-.079-.131-.118C1229.576,189.228,1229.618,189.268,1229.663,189.307Zm-.4-5.756,2.538-2.485,2.715,2.663-2.538,2.485Zm3.648,3.575,2.538-2.487,2.662,2.611-2.535,2.485Zm3.74,5.491a14.506,14.506,0,0,1-1.732-.411l.656-.644Zm-.273-8.889,2.78-2.726,2.661,2.612-2.778,2.723Zm4.177-3.181h4.394l-2.2,2.153Zm-5.106,2.267-2.313-2.267h4.624Zm-7.115-.177-2.132-2.09h4.265Zm-3.281-1.389,2.349,2.3-1.221,1.2a13.711,13.711,0,0,1-1.128-3.5Zm1.436,4.107q.162.3.338.587l1.507-1.478,2.716,2.662-1.823,1.787A14.111,14.111,0,0,1,1226.491,185.355Zm-.3-.6q.142.3.3.591Q1226.329,185.052,1226.186,184.753Zm10.668,7.9c.108.017.217.036.326.051C1237.07,192.685,1236.962,192.667,1236.854,192.649Zm.893.116.188.015Zm.593.043.29.013Zm.813.025c-.143,0-.284-.006-.426-.01l-2.221-2.174,2.538-2.485,2.106,2.065a.674.674,0,0,0,.932,0,.64.64,0,0,0,0-.914l-2.107-2.065,2.778-2.725,1.053,1.032a.667.667,0,0,0,.932,0,.641.641,0,0,0,0-.914l-1.053-1.03,3.129-3.067h6.546A14.224,14.224,0,0,1,1239.152,192.833ZM1254.112,179a1.237,1.237,0,0,1-.65.273,1.273,1.273,0,0,1-.14.007h-28.337a1.264,1.264,0,0,1-.139-.007,1.242,1.242,0,0,1-.653-.276,1.189,1.189,0,0,1-.441-.926,1.148,1.148,0,0,1,.132-.539,1.23,1.23,0,0,1,1.1-.67h28.337a1.238,1.238,0,0,1,1.105.67,1.194,1.194,0,0,1-.315,1.468Z" transform="translate(-1217.527 -156.655)"/></svg>