<svg xmlns="http://www.w3.org/2000/svg" width="31" height="40" viewBox="0 0 31 40"><defs><style>.a,.b{fill:#c5cae9;}.a{opacity:0.407;}.c{fill:#3f51b5;}.d{fill:none;}.e,.f{stroke:none;}.f{fill:#fff;}</style></defs><g transform="translate(-207 -260)"><ellipse class="a" cx="15.5" cy="4.5" rx="15.5" ry="4.5" transform="translate(207 291)"/><ellipse class="b" cx="9.5" cy="2.5" rx="9.5" ry="2.5" transform="translate(213 293)"/><path class="c" d="M2478.759,995.02a15.089,15.089,0,0,0-30.17,0c0,8.145,15.085,20.252,15.085,20.252S2478.759,1003.165,2478.759,995.02Z" transform="translate(-2241.589 -720.272)"/><g class="d" transform="translate(216 269)"><path class="e" d="M6,0A6,6,0,1,1,0,6,6,6,0,0,1,6,0Z"/><path class="f" d="M 6 1.300000190734863 C 3.40841007232666 1.300000190734863 1.300000190734863 3.40841007232666 1.300000190734863 6 C 1.300000190734863 8.59158992767334 3.40841007232666 10.69999980926514 6 10.69999980926514 C 8.59158992767334 10.69999980926514 10.69999980926514 8.59158992767334 10.69999980926514 6 C 10.69999980926514 3.40841007232666 8.59158992767334 1.300000190734863 6 1.300000190734863 M 6 0 C 9.31371021270752 0 12 2.68628978729248 12 6 C 12 9.31371021270752 9.31371021270752 12 6 12 C 2.68628978729248 12 0 9.31371021270752 0 6 C 0 2.68628978729248 2.68628978729248 0 6 0 Z"/></g></g></svg>