<svg xmlns="http://www.w3.org/2000/svg" width="44.727" height="52.674" viewBox="0 0 44.727 52.674"><defs><style>.a{fill:none;stroke:#404ea7;stroke-width:2px;}.b{fill:#404ea7;}.c{fill:#fff;}</style></defs><g transform="translate(1 1)"><path class="a" d="M845.607,589.623c0,11.573-21.363,29.416-21.363,29.416S802.88,601.2,802.88,589.623a21.367,21.367,0,0,1,42.727,0Z" transform="translate(-802.88 -568.668)"/><g transform="translate(11.635 10.909)"><ellipse class="b" cx="9.728" cy="9.543" rx="9.728" ry="9.543" transform="translate(0 0)"/></g><g transform="translate(4.41 15.66)"><path class="b" d="M824.311,621.431a.937.937,0,0,1,.332.729.961.961,0,0,1-.967.962,1.5,1.5,0,0,1-.7-.22,3.844,3.844,0,0,0-1.833-.417c-1.176,0-1.645.53-1.645,1.089,0,.644.534.92,2,1.182,2.554.467,3.7,1.33,3.7,3.05,0,1.755-1.472,3.064-3.953,3.064a5.7,5.7,0,0,1-3.513-1.09,1.023,1.023,0,0,1-.505-.856.973.973,0,0,1,.981-.962,1.2,1.2,0,0,1,.743.276,3.889,3.889,0,0,0,2.438.729c1.089,0,1.775-.424,1.775-1.146,0-.7-.83-.941-2.251-1.224-2.388-.474-3.448-1.295-3.448-3.022,0-1.79,1.551-2.972,3.694-2.972A5.27,5.27,0,0,1,824.311,621.431Z" transform="translate(-817.227 -620.603)"/><path class="b" d="M908.726,621.431a.937.937,0,0,1,.332.729.961.961,0,0,1-.967.962,1.494,1.494,0,0,1-.7-.22,3.845,3.845,0,0,0-1.833-.417c-1.176,0-1.645.53-1.645,1.089,0,.644.534.92,2,1.182,2.554.467,3.7,1.33,3.7,3.05,0,1.755-1.472,3.064-3.953,3.064a5.7,5.7,0,0,1-3.513-1.09,1.023,1.023,0,0,1-.5-.856.973.973,0,0,1,.981-.962,1.2,1.2,0,0,1,.743.276,3.891,3.891,0,0,0,2.439.729c1.089,0,1.775-.424,1.775-1.146,0-.7-.83-.941-2.251-1.224-2.388-.474-3.448-1.295-3.448-3.022,0-1.79,1.551-2.972,3.694-2.972A5.27,5.27,0,0,1,908.726,621.431Z" transform="translate(-875.693 -620.603)"/></g><g transform="translate(13.854 13.14)"><path class="c" d="M861.831,618.544H861.6v-.272a6.141,6.141,0,0,0-12.28,0v.272h-.234a1.126,1.126,0,0,0-1.136,1.114,1.107,1.107,0,0,0,.516.933,7.034,7.034,0,0,0,13.987,0,1.105,1.105,0,0,0,.516-.932A1.127,1.127,0,0,0,861.831,618.544Zm-11.933-.272a5.56,5.56,0,0,1,11.119,0v.272h-.91v-.272h-.01a4.641,4.641,0,0,0-9.279,0h-.009v.272H849.9Zm9.619,0v.272H851.4v-.272a4.06,4.06,0,0,1,8.118,0Zm-8.078,6.65.792-.777,1.2,1.174-.4.393a.308.308,0,0,0-.064.1A6.469,6.469,0,0,1,851.44,624.921Zm-.006,0c-.05-.039-.1-.079-.147-.12C851.336,624.837,851.384,624.878,851.434,624.917Zm-.246-.2-.059-.053Zm-.179-2.591L852.151,621l1.222,1.2-1.141,1.119Zm1.641,1.61,1.142-1.12,1.2,1.176-1.141,1.118Zm1.682,2.471a6.512,6.512,0,0,1-.779-.185l.3-.289Zm-.123-4,1.25-1.227,1.2,1.175-1.25,1.226Zm1.879-1.432h1.976l-.988.969Zm-2.3,1.021-1.041-1.021h2.08Zm-3.2-.08-.959-.941h1.919Zm-1.476-.625,1.057,1.037-.549.539a6.179,6.179,0,0,1-.508-1.575Zm.646,1.849q.072.134.152.264l.678-.665,1.222,1.2-.82.8A6.343,6.343,0,0,1,849.762,622.936Zm-.137-.271c.042.09.088.179.135.266C849.712,622.843,849.668,622.754,849.625,622.664Zm4.8,3.554.147.023Zm.4.052.085.007Zm.266.019.13.006Zm.366.011c-.064,0-.128,0-.192,0l-1-.979,1.141-1.118.948.929a.3.3,0,0,0,.419,0,.288.288,0,0,0,0-.411l-.948-.929,1.25-1.227.474.465a.3.3,0,0,0,.419,0,.288.288,0,0,0,0-.411l-.474-.464,1.408-1.38h2.945A6.4,6.4,0,0,1,855.458,626.3Zm6.729-6.226a.557.557,0,0,1-.293.123c-.021,0-.042,0-.063,0H849.085c-.021,0-.042,0-.063,0a.557.557,0,0,1-.294-.124.535.535,0,0,1-.2-.417.52.52,0,0,1,.059-.242.554.554,0,0,1,.5-.3h12.747a.557.557,0,0,1,.5.3.53.53,0,0,1,.058.242A.54.54,0,0,1,862.187,620.076Z" transform="translate(-847.949 -612.248)"/></g></g></svg>