<svg xmlns="http://www.w3.org/2000/svg" width="77.513" height="93.161" viewBox="0 0 77.513 93.161"><defs><style>.a{fill:#fff;}.b{fill:#62c79d;}</style></defs><path class="a" d="M886.371,912c0,21.4-38.757,54.4-38.757,54.4s-38.757-33-38.757-54.4a38.757,38.757,0,1,1,77.513,0Z" transform="translate(-808.858 -873.248)"/><g transform="translate(21.107 20.177)"><circle class="b" cx="17.649" cy="17.649" r="17.649" transform="translate(0)"/></g><g transform="translate(8.001 28.963)"><path class="b" d="M836.057,926.714a1.789,1.789,0,0,1-1.152,3.127,2.684,2.684,0,0,1-1.269-.405,6.858,6.858,0,0,0-3.324-.772c-2.133,0-2.984.982-2.984,2.015,0,1.191.968,1.7,3.625,2.186,4.633.864,6.714,2.46,6.714,5.64,0,3.246-2.67,5.667-7.172,5.667a10.213,10.213,0,0,1-6.373-2.015,1.9,1.9,0,0,1-.916-1.584,1.781,1.781,0,0,1,1.78-1.779,2.15,2.15,0,0,1,1.348.51,6.969,6.969,0,0,0,4.424,1.348c1.976,0,3.219-.785,3.219-2.12,0-1.3-1.505-1.74-4.083-2.264-4.332-.877-6.256-2.4-6.256-5.589,0-3.311,2.814-5.5,6.7-5.5A9.43,9.43,0,0,1,836.057,926.714Z" transform="translate(-823.205 -925.183)"/><path class="b" d="M920.471,926.714a1.789,1.789,0,0,1-1.152,3.127,2.688,2.688,0,0,1-1.27-.405,6.856,6.856,0,0,0-3.324-.772c-2.133,0-2.984.982-2.984,2.015,0,1.191.969,1.7,3.625,2.186,4.633.864,6.714,2.46,6.714,5.64,0,3.246-2.67,5.667-7.172,5.667a10.216,10.216,0,0,1-6.374-2.015,1.9,1.9,0,0,1-.916-1.584,1.782,1.782,0,0,1,1.78-1.779,2.151,2.151,0,0,1,1.348.51,6.967,6.967,0,0,0,4.423,1.348c1.976,0,3.22-.785,3.22-2.12,0-1.3-1.506-1.74-4.084-2.264-4.332-.877-6.255-2.4-6.255-5.589,0-3.311,2.813-5.5,6.7-5.5A9.432,9.432,0,0,1,920.471,926.714Z" transform="translate(-860.544 -925.183)"/></g><g transform="translate(25.134 24.303)"><path class="a" d="M879.112,928.471h-.423v-.5a11.139,11.139,0,1,0-22.278,0v.5h-.424a2.06,2.06,0,0,0-1.125,3.786,12.737,12.737,0,0,0,25.375,0,2.058,2.058,0,0,0-1.125-3.784Zm-21.648-.5a10.086,10.086,0,1,1,20.172,0v.5h-1.652v-.5h-.017a8.417,8.417,0,0,0-16.834,0h-.017v.5h-1.652Zm17.45,0v.5H860.186v-.5a7.364,7.364,0,0,1,14.728,0Zm-14.653,12.3,1.437-1.437L863.87,941l-.727.727a.554.554,0,0,0-.117.181A11.683,11.683,0,0,1,860.26,940.266Zm-.01-.008c-.09-.072-.178-.147-.267-.222C860.071,940.111,860.159,940.187,860.25,940.259Zm-.446-.374c-.036-.032-.071-.065-.107-.1C859.733,939.819,859.768,939.853,859.8,939.884Zm-.324-4.792,2.071-2.069,2.216,2.216-2.071,2.069Zm2.976,2.976L864.528,936l2.172,2.174-2.068,2.069Zm3.052,4.571a11.574,11.574,0,0,1-1.413-.342l.536-.536Zm-.222-7.4,2.269-2.269,2.172,2.174-2.267,2.267Zm3.409-2.648h3.585l-1.792,1.793Zm-4.167,1.888-1.888-1.888h3.774Zm-5.806-.147-1.741-1.74h3.48Zm-2.678-1.157,1.917,1.917-1,1a11.58,11.58,0,0,1-.921-2.913Zm1.172,3.419q.131.248.275.489l1.231-1.23,2.216,2.216-1.488,1.488A11.713,11.713,0,0,1,857.216,936.594Zm-.249-.5c.077.166.159.33.244.492Q857.083,936.343,856.967,936.093Zm8.706,6.574c.089.014.177.03.266.042C865.849,942.7,865.761,942.681,865.673,942.667Zm.729.1.153.013Zm.484.036.236.011Zm.664.021c-.117,0-.232-.005-.347-.008L865.389,941l2.071-2.069,1.719,1.719a.538.538,0,0,0,.76-.761l-1.719-1.719,2.267-2.269.859.859a.537.537,0,0,0,.761,0,.541.541,0,0,0,0-.761l-.86-.857,2.554-2.554h5.343A11.687,11.687,0,0,1,867.549,942.82ZM879.757,931.3a1,1,0,0,1-.531.228.972.972,0,0,1-.114.007H855.987a.973.973,0,0,1-.114-.007,1.008,1.008,0,0,1-.893-1,.978.978,0,0,1,.107-.449,1,1,0,0,1,.9-.558h23.125a1.007,1.007,0,0,1,.645,1.78Z" transform="translate(-853.927 -916.828)"/></g></svg>