<?xml version="1.0" encoding="utf-8"?>
<!-- Generator: Adobe Illustrator 24.1.0, SVG Export Plug-In . SVG Version: 6.00 Build 0)  -->
<svg version="1.1" id="Livello_1" xmlns="http://www.w3.org/2000/svg" xmlns:xlink="http://www.w3.org/1999/xlink" x="0px" y="0px"
	 viewBox="0 0 134.5 41.5" enable-background="new 0 0 134.5 41.5" xml:space="preserve">
<g transform="translate(-140 -277.5)">
	<g enable-background="new    ">
		<path fill="#3F51B5" d="M153.9,294c0,1.1-0.4,2-1.2,2.8c-0.7,0.6-1.6,1.1-2.7,1.5c-0.9,0.3-1.8,0.4-2.6,0.4
			c-0.7,0-1.4-0.1-2.2-0.2s-1.7-0.2-2.5-0.3c-0.1,0-0.2,0-0.3,0c-0.1,0-0.2,0.1-0.3,0.1c-0.1,0.1-0.2,0.1-0.3,0.2l-0.5-5.6l0.5-0.1
			c0,0.3,0.1,0.6,0.3,1.1c0.3,0.6,0.5,1.1,0.9,1.4c0.5,0.5,1,0.9,1.7,1.2c0.7,0.3,1.3,0.4,1.9,0.4c0.7,0,1.3-0.1,1.8-0.4
			c0.5-0.3,0.8-0.7,0.9-1.3c0-0.1,0-0.2,0-0.3c0-0.3-0.1-0.6-0.3-0.9c-0.2-0.2-0.5-0.4-0.8-0.5l-3.6-1.2c-0.9-0.3-1.5-0.7-2-1.2
			c-0.5-0.6-0.8-1.3-0.8-2.2c0-1.2,0.5-2.2,1.4-3c0.8-0.7,1.9-1.2,3.2-1.5c0.3-0.1,0.7-0.1,1-0.1c0.5,0,1,0.1,1.6,0.2
			s1.2,0.2,1.8,0.4c0.1,0,0.1,0,0.1,0c0.2-0.1,0.4-0.1,0.6-0.2c0.2-0.1,0.3-0.2,0.4-0.2l0.5,4.4L152,289c0-0.1-0.1-0.3-0.3-0.6
			c-0.4-0.7-0.8-1.2-1.2-1.5c-0.3-0.2-0.7-0.4-1.2-0.6c-0.4-0.1-0.9-0.2-1.3-0.2c-0.4,0-0.7,0.1-0.9,0.2c-0.3,0.1-0.5,0.3-0.6,0.5
			c-0.1,0.1-0.1,0.3-0.2,0.4c-0.1,0.2-0.1,0.4-0.1,0.6c0,0.3,0.1,0.6,0.3,0.8c0.3,0.3,0.7,0.5,1.3,0.7l3.3,1c0.9,0.3,1.5,0.7,2,1.4
			C153.6,292.3,153.9,293.1,153.9,294z"/>
		<path fill="#3F51B5" d="M169,285.3c-0.3,0-0.5,0.2-0.7,0.4c-0.2,0.2-0.3,0.5-0.3,0.8c-0.1,0.3-0.1,0.7-0.1,1c0,0.1,0,0.1,0,0.2
			c0,0,0,0,0,0.1v6.6c0,1.2-0.5,2.3-1.4,3.1c-0.9,0.8-2,1.2-3.4,1.4c-0.2,0-0.4,0-0.5,0s-0.3,0-0.6,0c-1.7,0-3-0.3-4.1-1
			c-1.2-0.7-1.8-1.7-1.8-3.1v-8.1c0-0.3,0-0.5,0-0.6c0-0.1-0.1-0.3-0.2-0.4c-0.2-0.3-0.5-0.4-0.8-0.4v-0.5h6.6v0.5
			c-0.2,0-0.3,0-0.5,0.1s-0.3,0.2-0.4,0.3c-0.2,0.1-0.3,0.3-0.3,0.5s-0.1,0.4-0.1,0.6v8c0,0.7,0.3,1.2,0.9,1.6
			c0.5,0.4,1.2,0.5,2,0.5c0.7,0,1.4-0.2,2-0.7c0.6-0.5,0.9-1,0.9-1.7v-6.4v-0.7c0-0.4,0-0.8-0.1-1.1c-0.1-0.3-0.2-0.5-0.4-0.7
			c-0.2-0.2-0.5-0.3-0.9-0.3v-0.5h4.2V285.3z"/>
		<path fill="#3F51B5" d="M182.9,294c0,1.1-0.4,2-1.2,2.8c-0.7,0.6-1.6,1.1-2.7,1.5c-0.9,0.3-1.8,0.4-2.6,0.4
			c-0.7,0-1.4-0.1-2.2-0.2s-1.7-0.2-2.5-0.3c-0.1,0-0.2,0-0.3,0c-0.1,0-0.2,0.1-0.3,0.1c-0.1,0.1-0.2,0.1-0.3,0.2l-0.5-5.6l0.5-0.1
			c0,0.3,0.1,0.6,0.3,1.1c0.3,0.6,0.5,1.1,0.9,1.4c0.5,0.5,1,0.9,1.7,1.2c0.7,0.3,1.3,0.4,1.9,0.4c0.7,0,1.3-0.1,1.8-0.4
			c0.5-0.3,0.8-0.7,0.9-1.3c0-0.1,0-0.2,0-0.3c0-0.3-0.1-0.6-0.3-0.9c-0.2-0.2-0.5-0.4-0.8-0.5l-3.6-1.2c-0.9-0.3-1.5-0.7-2-1.2
			c-0.5-0.6-0.8-1.3-0.8-2.2c0-1.2,0.5-2.2,1.4-3c0.8-0.7,1.9-1.2,3.2-1.5c0.3-0.1,0.7-0.1,1-0.1c0.5,0,1,0.1,1.6,0.2
			s1.2,0.2,1.8,0.4c0.1,0,0.1,0,0.1,0c0.2-0.1,0.4-0.1,0.6-0.2c0.2-0.1,0.3-0.2,0.4-0.2l0.5,4.4L181,289c0-0.1-0.1-0.3-0.3-0.6
			c-0.4-0.7-0.8-1.2-1.2-1.5c-0.3-0.2-0.7-0.4-1.2-0.6c-0.4-0.1-0.9-0.2-1.3-0.2c-0.4,0-0.7,0.1-0.9,0.2c-0.3,0.1-0.5,0.3-0.6,0.5
			c-0.1,0.1-0.1,0.3-0.2,0.4c-0.1,0.2-0.1,0.4-0.1,0.6c0,0.3,0.1,0.6,0.3,0.8c0.3,0.3,0.7,0.5,1.3,0.7l3.3,1c0.9,0.3,1.5,0.7,2,1.4
			C182.6,292.3,182.9,293.1,182.9,294z"/>
		<path fill="#3F51B5" d="M197.2,286.6c0,0.1,0,0.1,0,0.3c0,0.1,0,0.3,0,0.4c0,0.8-0.4,1.6-1.1,2.2c-0.6,0.5-1.6,1-2.8,1.5
			c-0.8,0.3-1.9,0.6-3.4,1l-0.6,0.1l0,3.9c0,0.3,0,0.5,0,0.7c0,0.2,0.1,0.4,0.2,0.5c0.1,0.2,0.3,0.3,0.4,0.4c0,0,0.2,0,0.5,0.1v0.5
			h-6.5v-0.5c0.2,0,0.3-0.1,0.4-0.1c0.1,0,0.2-0.1,0.3-0.2c0.2-0.2,0.3-0.3,0.3-0.5c0-0.2,0.1-0.4,0.1-0.7v-8.9c0-0.2,0-0.3,0-0.4
			c0-0.5-0.1-0.9-0.3-1.2c-0.1-0.2-0.2-0.3-0.3-0.4c-0.1-0.1-0.3-0.1-0.5-0.1v-0.5h9.7c0.8,0,1.5,0.1,1.9,0.2
			C196.6,285.3,197.1,285.9,197.2,286.6z M192.9,287.6c0-0.5-0.2-0.9-0.6-1.1c-0.4-0.2-0.8-0.4-1.4-0.4c-0.4,0-0.8,0.1-1,0.2
			c-0.2,0.1-0.3,0.2-0.4,0.4c-0.1,0.2-0.1,0.4-0.1,0.6v3.3l0.4-0.1c0.7-0.1,1.3-0.4,2-0.9C192.6,289,192.9,288.4,192.9,287.6z"/>
		<path fill="#3F51B5" d="M211.6,293.4l-1.8,5.2l-0.5-0.1c-0.2,0-0.3-0.1-0.5-0.1c-0.2,0-0.4,0-0.6,0h-9.9v-0.5
			c0.3,0,0.4-0.1,0.5-0.1c0.1,0,0.2-0.1,0.3-0.2c0.1-0.2,0.2-0.3,0.3-0.5c0-0.2,0.1-0.4,0.1-0.7v-9.6c0-0.1,0-0.1,0-0.1
			c0-0.2,0-0.4,0-0.5s-0.1-0.2-0.2-0.4c-0.1-0.1-0.2-0.2-0.3-0.2c-0.1,0-0.3,0-0.5,0v-0.5h8.9c0,0,0.1,0,0.2,0c0.3,0,0.7,0,1.2-0.1
			c0.2,0,0.3-0.1,0.4-0.1c0.1,0,0.2-0.1,0.4-0.1l1,4.6l-0.4,0.3c-0.2-0.9-0.7-1.7-1.4-2.3c-0.4-0.4-0.9-0.6-1.5-0.8
			s-1.1-0.3-1.7-0.3c-0.6,0-1.1,0.1-1.3,0.3c-0.2,0.1-0.3,0.3-0.4,0.5c-0.1,0.2-0.1,0.5-0.1,0.7v1.5h1.9c0.2,0,0.4,0,0.5-0.1
			c0.2,0,0.3-0.1,0.5-0.3c0.3-0.3,0.5-0.6,0.5-1c0-0.1,0-0.2,0-0.2l0.4-0.1l0.9,5.2l-0.5,0.1c0-0.2-0.1-0.4-0.3-0.7
			c-0.2-0.3-0.4-0.6-0.6-0.8c-0.2-0.2-0.5-0.4-0.8-0.5c-0.3-0.1-0.5-0.2-0.7-0.2h-1.7v3.9c0,0.1,0,0.2,0,0.3c0,0.1,0,0.2,0,0.2
			c0,0.3,0,0.6,0.1,0.8s0.1,0.4,0.3,0.7c0.2,0.2,0.4,0.4,0.7,0.5c0.3,0.1,0.6,0.2,1,0.2c0.4,0,0.9-0.1,1.3-0.2
			c0.4-0.1,0.9-0.3,1.2-0.5c0.6-0.3,1.1-0.8,1.6-1.3c0.6-0.6,0.9-1.3,1.1-1.9L211.6,293.4z"/>
		<path fill="#3F51B5" d="M226,285.3c-0.1,0-0.2,0-0.3,0.1c-0.2,0-0.3,0.2-0.4,0.3c-0.2,0.2-0.3,0.5-0.3,0.8c0,0.3-0.1,0.6-0.1,0.8
			v9c0,0.1,0,0.3,0,0.5c0,0.2,0.1,0.4,0.2,0.5s0.2,0.3,0.4,0.3c0.2,0.1,0.3,0.1,0.5,0.2v0.5h-4.1v-0.5c0.1,0,0.2,0,0.4-0.1
			c0.4-0.1,0.7-0.5,0.7-1.1c0-0.4-0.1-0.8-0.3-1.1c-0.1-0.2-0.4-0.6-0.7-1l-6.2-7.3l0,9.1c0,0.2,0,0.4,0,0.6s0.1,0.3,0.2,0.5
			c0.1,0.1,0.2,0.3,0.3,0.3c0.1,0.1,0.3,0.1,0.5,0.2v0.5h-3.9v-0.5c0.2,0,0.3,0,0.4,0c0.1,0,0.1-0.1,0.3-0.1
			c0.2-0.1,0.3-0.4,0.4-0.7c0.1-0.4,0.1-0.8,0.1-1.2v-8.3c0-0.1,0-0.2,0-0.3c0-0.3,0-0.6-0.1-0.8s-0.1-0.4-0.2-0.5
			c-0.2-0.2-0.5-0.3-0.8-0.4v-0.5h7.8v0.5c-0.1,0-0.2,0-0.2,0.1c-0.1,0-0.1,0.1-0.2,0.2c-0.1,0.1-0.1,0.2-0.1,0.3
			c0,0.1,0,0.3,0.1,0.4c0,0.1,0.1,0.2,0.2,0.3l2.7,3.4v-3.1c0-0.1,0-0.1,0-0.2c0-0.2,0-0.4,0-0.6c0-0.1-0.1-0.3-0.2-0.4
			c-0.1-0.1-0.2-0.3-0.4-0.3c-0.2-0.1-0.3-0.1-0.6-0.1v-0.5h4.1V285.3z"/>
		<path fill="#3F51B5" d="M242.1,291.6c0,2-0.5,3.6-1.5,4.8c-1.2,1.3-2.9,2-5.3,2h-8.1v-0.5c0.3,0,0.5-0.1,0.8-0.4
			c0.1-0.1,0.1-0.2,0.2-0.4c0.1-0.2,0.1-0.4,0.1-0.6v-9.8c0-0.2,0-0.4,0-0.4c0-0.2-0.1-0.4-0.2-0.5c-0.1-0.1-0.2-0.2-0.4-0.3
			s-0.3-0.1-0.5-0.1v-0.5h7.4c2,0,3.8,0.6,5.2,1.9C241.3,288.1,242.1,289.7,242.1,291.6z M237.7,291.6c0-1.5-0.4-2.8-1.3-3.9
			c-0.8-1.1-1.7-1.6-2.7-1.6c-0.2,0-0.5,0-0.7,0.1c-0.2,0.1-0.4,0.3-0.5,0.5c-0.1,0.2-0.1,0.5-0.1,0.9v7.6c0,0.5,0.1,0.9,0.2,1.1
			s0.3,0.4,0.6,0.5c0.3,0.1,0.6,0.2,0.9,0.2c1,0,1.8-0.5,2.5-1.5C237.4,294.5,237.7,293.2,237.7,291.6z"/>
		<path fill="#3F51B5" d="M256.4,293.4l-1.8,5.2l-0.5-0.1c-0.2,0-0.3-0.1-0.5-0.1c-0.2,0-0.4,0-0.6,0h-9.9v-0.5
			c0.3,0,0.4-0.1,0.5-0.1c0.1,0,0.2-0.1,0.3-0.2c0.1-0.2,0.2-0.3,0.3-0.5c0-0.2,0.1-0.4,0.1-0.7v-9.6c0-0.1,0-0.1,0-0.1
			c0-0.2,0-0.4,0-0.5s-0.1-0.2-0.2-0.4c-0.1-0.1-0.2-0.2-0.3-0.2c-0.1,0-0.3,0-0.5,0v-0.5h8.9c0,0,0.1,0,0.2,0c0.3,0,0.7,0,1.2-0.1
			c0.2,0,0.3-0.1,0.4-0.1c0.1,0,0.2-0.1,0.4-0.1l1,4.6l-0.4,0.3c-0.2-0.9-0.7-1.7-1.4-2.3c-0.4-0.4-0.9-0.6-1.5-0.8
			c-0.6-0.2-1.1-0.3-1.7-0.3c-0.6,0-1.1,0.1-1.3,0.3c-0.2,0.1-0.3,0.3-0.4,0.5c-0.1,0.2-0.1,0.5-0.1,0.7v1.5h1.9
			c0.2,0,0.4,0,0.5-0.1c0.2,0,0.3-0.1,0.5-0.3c0.3-0.3,0.5-0.6,0.5-1c0-0.1,0-0.2,0-0.2l0.4-0.1l0.9,5.2l-0.5,0.1
			c0-0.2-0.1-0.4-0.3-0.7c-0.2-0.3-0.4-0.6-0.6-0.8c-0.2-0.2-0.5-0.4-0.8-0.5c-0.3-0.1-0.5-0.2-0.7-0.2h-1.7v3.9c0,0.1,0,0.2,0,0.3
			c0,0.1,0,0.2,0,0.2c0,0.3,0,0.6,0.1,0.8c0,0.2,0.1,0.4,0.3,0.7c0.2,0.2,0.4,0.4,0.7,0.5c0.3,0.1,0.6,0.2,1,0.2
			c0.4,0,0.9-0.1,1.3-0.2c0.4-0.1,0.9-0.3,1.2-0.5c0.6-0.3,1.1-0.8,1.6-1.3c0.6-0.6,0.9-1.3,1.1-1.9L256.4,293.4z"/>
		<path fill="#3F51B5" d="M272.4,291.6c0,2-0.5,3.6-1.5,4.8c-1.2,1.3-2.9,2-5.3,2h-8.1v-0.5c0.3,0,0.5-0.1,0.8-0.4
			c0.1-0.1,0.1-0.2,0.2-0.4c0.1-0.2,0.1-0.4,0.1-0.6v-9.8c0-0.2,0-0.4,0-0.4c0-0.2-0.1-0.4-0.2-0.5c-0.1-0.1-0.2-0.2-0.4-0.3
			s-0.3-0.1-0.5-0.1v-0.5h7.4c2,0,3.8,0.6,5.2,1.9C271.7,288.1,272.4,289.7,272.4,291.6z M268.1,291.6c0-1.5-0.4-2.8-1.3-3.9
			c-0.8-1.1-1.7-1.6-2.7-1.6c-0.2,0-0.5,0-0.7,0.1c-0.2,0.1-0.4,0.3-0.5,0.5c-0.1,0.2-0.1,0.5-0.1,0.9v7.6c0,0.5,0.1,0.9,0.2,1.1
			s0.3,0.4,0.6,0.5c0.3,0.1,0.6,0.2,0.9,0.2c1,0,1.8-0.5,2.5-1.5C267.7,294.5,268.1,293.2,268.1,291.6z"/>
	</g>
	<g enable-background="new    ">
		<path fill="#3F51B5" d="M189.3,307.2l-0.4,0.1c-0.2-0.5-0.4-1-0.8-1.5c-0.4-0.5-0.9-0.9-1.4-1.1c-0.5-0.2-1.1-0.4-1.7-0.4l0,9.2
			c0,0.1,0,0.2,0,0.3c0,0.3,0,0.6,0.1,0.9c0,0.3,0.2,0.5,0.3,0.7c0.2,0.2,0.3,0.3,0.5,0.4c0.2,0.1,0.4,0.1,0.7,0.1v0.5h-7.4v-0.5
			c0,0,0.1,0,0.2,0c0.4,0,0.7-0.1,1-0.4c0.2-0.2,0.3-0.4,0.3-0.6s0.1-0.5,0.1-0.9v-9.7c-0.5,0-1,0.1-1.4,0.2
			c-0.4,0.1-0.8,0.4-1.3,0.8c-0.2,0.2-0.5,0.5-0.7,0.8c-0.3,0.4-0.4,0.8-0.5,1.1l-0.4-0.1l1-4.7c0.1,0.1,0.3,0.2,0.4,0.3
			c0.1,0,0.2,0,0.3,0.1s0.2,0,0.2,0c0.2,0,0.4,0,0.4,0h8.1c0.1,0,0.3,0,0.4,0s0.3,0,0.5-0.1c0.2-0.1,0.4-0.1,0.6-0.3L189.3,307.2z"
			/>
		<path fill="#3F51B5" d="M203.6,311.4l-1.8,5.2l-0.5-0.1c-0.2,0-0.3-0.1-0.5-0.1c-0.2,0-0.4,0-0.6,0h-9.9v-0.5
			c0.3,0,0.4-0.1,0.5-0.1c0.1,0,0.2-0.1,0.3-0.2c0.1-0.2,0.2-0.3,0.3-0.5c0-0.2,0.1-0.4,0.1-0.7v-9.6c0-0.1,0-0.1,0-0.1
			c0-0.2,0-0.4,0-0.5s-0.1-0.2-0.2-0.4c-0.1-0.1-0.2-0.2-0.3-0.2c-0.1,0-0.3,0-0.5,0v-0.5h8.9c0,0,0.1,0,0.2,0c0.3,0,0.7,0,1.2-0.1
			c0.2,0,0.3-0.1,0.4-0.1c0.1,0,0.2-0.1,0.4-0.1l1,4.6l-0.4,0.3c-0.2-0.9-0.7-1.7-1.4-2.3c-0.4-0.4-0.9-0.6-1.5-0.8
			c-0.6-0.2-1.1-0.3-1.7-0.3c-0.6,0-1.1,0.1-1.3,0.3c-0.2,0.1-0.3,0.3-0.4,0.5c-0.1,0.2-0.1,0.5-0.1,0.7v1.5h1.9
			c0.2,0,0.4,0,0.5-0.1c0.2,0,0.3-0.1,0.5-0.3c0.3-0.3,0.5-0.6,0.5-1c0-0.1,0-0.2,0-0.2l0.4-0.1l0.9,5.2l-0.5,0.1
			c0-0.2-0.1-0.4-0.3-0.7c-0.2-0.3-0.4-0.6-0.6-0.8c-0.2-0.2-0.5-0.4-0.8-0.5c-0.3-0.1-0.5-0.2-0.7-0.2h-1.7v3.9c0,0.1,0,0.2,0,0.3
			c0,0.1,0,0.2,0,0.2c0,0.3,0,0.6,0.1,0.8c0,0.2,0.1,0.4,0.3,0.7c0.2,0.2,0.4,0.4,0.7,0.5s0.6,0.2,1,0.2c0.4,0,0.9-0.1,1.3-0.2
			c0.4-0.1,0.9-0.3,1.2-0.5c0.6-0.3,1.1-0.8,1.6-1.3c0.6-0.6,0.9-1.3,1.1-1.9L203.6,311.4z"/>
		<path fill="#3F51B5" d="M220,316.4h-7v-0.5c0.2,0,0.4-0.1,0.5-0.2c0.4-0.2,0.5-0.6,0.5-1.1c0-0.2,0-0.3,0-0.4
			c-0.1-0.4-0.3-0.9-0.8-1.4c-0.5-0.6-1.1-1-1.7-1.3c-0.2-0.1-0.6-0.2-1.1-0.3c-0.5-0.1-0.9-0.1-1.2-0.1l-1,2.8
			c-0.1,0.3-0.2,0.7-0.2,1.1c0,0.2,0,0.3,0.1,0.4c0.1,0.2,0.2,0.3,0.4,0.4c0.1,0.1,0.3,0.1,0.5,0.2v0.5h-4.5v-0.5
			c0.2-0.1,0.3-0.1,0.4-0.2s0.2-0.2,0.4-0.3c0.2-0.2,0.4-0.4,0.5-0.5c0.1-0.2,0.2-0.4,0.3-0.7l3.8-9.6c0-0.1,0.1-0.2,0.1-0.3
			s0.1-0.2,0.1-0.3c0-0.1,0-0.2-0.1-0.3s-0.1-0.1-0.2-0.2c-0.1,0-0.1,0-0.2-0.1v-0.5h6v0.6c-0.2,0-0.4,0.1-0.4,0.2
			c0,0.1-0.1,0.1-0.1,0.2s0,0.2,0,0.2c0,0,0,0.1,0.1,0.3l3.5,10.6c0.1,0.1,0.1,0.2,0.1,0.3c0.1,0.2,0.2,0.3,0.3,0.4
			c0.1,0.1,0.2,0.1,0.3,0.2c0.1,0,0.2,0.1,0.4,0.1V316.4z M212.8,310.4l-1.5-4.8l-1.3,3.8c0.1,0,0.2,0,0.4,0c0.2,0,0.4,0.1,0.7,0.1
			c0.3,0.1,0.7,0.2,1,0.4C212.4,310.1,212.6,310.3,212.8,310.4z"/>
		<path fill="#3F51B5" d="M237.2,303.3c-0.2,0-0.4,0.1-0.5,0.1c-0.1,0.1-0.2,0.1-0.3,0.3c-0.2,0.2-0.3,0.4-0.3,0.7
			c0,0.2-0.1,0.5-0.1,0.8v9.2c0,0.2,0,0.3,0,0.4c0,0.1,0,0.2,0,0.3c0,0.1,0.1,0.2,0.1,0.3c0.2,0.3,0.5,0.4,0.9,0.4v0.5h-6.5v-0.5
			c0.2,0,0.3,0,0.5-0.1c0.1-0.1,0.3-0.2,0.4-0.3c0.1-0.1,0.2-0.3,0.2-0.4c0-0.2,0.1-0.3,0.1-0.5c0-0.1,0-0.2,0-0.2v-8.5l-4,8
			l-3.8-8.2v8.8c0,0.2,0,0.4,0,0.5c0,0.1,0.1,0.3,0.2,0.5c0.2,0.3,0.5,0.5,1,0.5v0.5h-4v-0.5c0.2,0,0.3,0,0.4-0.1
			c0.1,0,0.3-0.1,0.4-0.3c0.1-0.1,0.2-0.4,0.3-0.7s0.1-0.7,0.1-1.1v-8.3c0-0.3,0-0.6,0-0.8c0-0.5-0.1-0.8-0.3-1
			c-0.1-0.1-0.2-0.2-0.4-0.2c-0.1,0-0.3,0-0.4-0.1v-0.5h7v0.5c-0.2,0.1-0.3,0.2-0.4,0.3c-0.1,0.1-0.1,0.2-0.1,0.3c0,0.1,0,0.2,0,0.2
			c0,0.1,0,0.2,0.1,0.3l1.4,3.2l1.7-3.3c0.1-0.1,0.1-0.2,0.1-0.3c0-0.1,0-0.2,0-0.3c0-0.1,0-0.1,0-0.2c0-0.1-0.1-0.1-0.1-0.2
			c0,0-0.1-0.1-0.2-0.1v-0.5h6.5V303.3z"/>
	</g>
	<g>
		<rect x="140.2" y="279.9" fill="#404EA7" width="134" height="2"/>
	</g>
	<g>
		<rect x="140.2" y="302.9" fill="#404EA7" width="32" height="2"/>
	</g>
	<g>
		<rect x="242.2" y="302.9" fill="#404EA7" width="32" height="2"/>
	</g>
</g>
</svg>
