<svg xmlns="http://www.w3.org/2000/svg" width="30.17" height="35" viewBox="0 0 30.17 35"><defs><style>.a{fill:#8bc34a;}.b{fill:#fff;}</style></defs><path class="a" d="M727.32,995.02a15.089,15.089,0,0,0-30.17,0c0,8.145,15.085,20.252,15.085,20.252S727.32,1003.165,727.32,995.02Z" transform="translate(-697.15 -980.272)"/><g transform="translate(3.877 7.594)"><path class="b" d="M751.853,1088.391H762.72a.6.6,0,0,0,.576-.425l2.4-8.2a.583.583,0,0,0-.409-.724.606.606,0,0,0-.167-.023H750.471l-.428-1.886a.6.6,0,0,0-.585-.458h-3.6a.586.586,0,1,0,0,1.172h3.115c.075.334,2.049,9.018,2.163,9.518a1.743,1.743,0,0,0-.935,2.311,1.8,1.8,0,0,0,1.649,1.059H762.72a.586.586,0,1,0,0-1.172H751.854a.586.586,0,1,1,0-1.172Zm12.469-8.2-2.054,7.029h-9.933l-1.6-7.029Z" transform="translate(-745.262 -1076.674)"/><path class="b" d="M819.642,1256.906a1.8,1.8,0,1,0,1.8-1.758h0A1.78,1.78,0,0,0,819.642,1256.906Zm1.8-.585a.585.585,0,1,1-.6.585h0a.593.593,0,0,1,.6-.586Z" transform="translate(-813.649 -1241.089)"/><path class="b" d="M924.745,1256.906a1.8,1.8,0,1,0,1.8-1.758h0A1.78,1.78,0,0,0,924.745,1256.906Zm1.8-.585a.585.585,0,1,1-.6.585h0a.593.593,0,0,1,.6-.586Z" transform="translate(-910.284 -1241.089)"/></g></svg>