<svg xmlns="http://www.w3.org/2000/svg" width="30.17" height="35" viewBox="0 0 30.17 35"><defs><style>.a{fill:#ea5785;}.b{fill:#fff;}</style></defs><path class="a" d="M1155.759,995.02a15.089,15.089,0,0,0-30.17,0c0,8.145,15.085,20.252,15.085,20.252S1155.759,1003.165,1155.759,995.02Z" transform="translate(-1125.589 -980.272)"/><path class="b" d="M1213.064,1070.7l-2.264-3.266,0-.005-.015-.02-.016-.02-.016-.018-.018-.019-.016-.016-.024-.02-.013-.011-.04-.027-.012-.007-.032-.017-.017-.008-.029-.012-.019-.007-.013-.005-4.517-1.472a2.485,2.485,0,0,0,1-1.838,1.908,1.908,0,0,0-1.949-1.908,1.929,1.929,0,0,1-2.784,0,1.908,1.908,0,0,0-1.949,1.908,2.485,2.485,0,0,0,1,1.838l-4.517,1.472-.014.005-.017.006-.031.013-.015.007-.034.019-.01.005-.041.028-.012.01-.026.021-.016.015-.019.019-.016.018-.016.02-.015.019,0,.005-2.264,3.266a.534.534,0,0,0-.066.481.551.551,0,0,0,.352.341l1.883.61v5.442a.545.545,0,0,0,.381.516l6.682,2.178a.566.566,0,0,0,.352,0l6.682-2.178a.545.545,0,0,0,.381-.516v-5.442l1.883-.61a.551.551,0,0,0,.352-.341.535.535,0,0,0-.066-.481Zm-10.8-7.606a.978.978,0,0,1,.859.7.557.557,0,0,0,1.066,0,.978.978,0,0,1,.859-.7.8.8,0,0,1,.835.819c0,.573-.633,1.082-1.847,2.007l-.38.29-.38-.29c-1.214-.925-1.847-1.434-1.847-2.007A.8.8,0,0,1,1202.265,1063.089Zm-5.2,8.1-1.479-.479,1.615-2.329,5.59,1.822-1.588,2.328-3.967-1.286A.557.557,0,0,0,1197.063,1071.19Zm6.037,7.8-5.568-1.815v-4.689l3.723,1.207a.564.564,0,0,0,.639-.215l1.207-1.77Zm.557-9.654-4.921-1.6,3.585-1.168c.089.068.738.562.989.759a.567.567,0,0,0,.7,0c.251-.2.9-.691.989-.759l3.585,1.168Zm6.125,7.839-5.568,1.815v-7.235l1.211,1.729a.561.561,0,0,0,.459.237.571.571,0,0,0,.175-.028l3.723-1.207Zm.469-5.988a.557.557,0,0,0-.172.056l-3.972,1.287-1.623-2.316,5.63-1.835,1.615,2.329Z" transform="translate(-1188.629 -1055.562)"/></svg>