<svg xmlns="http://www.w3.org/2000/svg" width="30.174" height="35" viewBox="0 0 30.174 35"><defs><style>.a{fill:#ea9b1c;}.b{fill:#fff;}</style></defs><path class="a" d="M284.105,995.02a15.091,15.091,0,0,0-30.174,0c0,8.145,15.087,20.252,15.087,20.252S284.105,1003.165,284.105,995.02Z" transform="translate(-253.931 -980.272)"/><path class="b" d="M328.92,1045.462h-.33v-.384a8.692,8.692,0,0,0-17.379,0v.384h-.33a1.591,1.591,0,0,0-1.607,1.571,1.56,1.56,0,0,0,.73,1.316,9.959,9.959,0,0,0,19.8,0,1.558,1.558,0,0,0,.73-1.314A1.592,1.592,0,0,0,328.92,1045.462Zm-16.888-.384a7.87,7.87,0,0,1,15.736,0v.384H326.48v-.384h-.013a6.568,6.568,0,0,0-13.133,0h-.013v.384h-1.288Zm13.613,0v.384H314.156v-.384a5.746,5.746,0,0,1,11.489,0Zm-11.432,9.379,1.121-1.1,1.7,1.656-.567.554a.424.424,0,0,0-.091.138A9.153,9.153,0,0,1,314.213,1054.457Zm-.008-.006c-.07-.055-.139-.112-.208-.169C314.066,1054.339,314.135,1054.4,314.206,1054.451Zm-.348-.285-.083-.075Zm-.253-3.654,1.616-1.578,1.729,1.69-1.615,1.578Zm2.322,2.27,1.615-1.579,1.694,1.658-1.614,1.578Zm2.381,3.485a9.229,9.229,0,0,1-1.1-.261l.418-.409Zm-.174-5.643,1.77-1.73,1.694,1.658-1.768,1.729Zm2.659-2.019h2.8l-1.4,1.367Zm-3.251,1.439-1.472-1.439h2.944Zm-4.529-.113-1.358-1.327h2.715Zm-2.089-.882,1.5,1.462-.777.76a8.69,8.69,0,0,1-.718-2.222Zm.914,2.607q.1.189.215.373l.96-.938,1.729,1.69-1.161,1.134A8.959,8.959,0,0,1,311.839,1051.657Zm-.194-.382q.09.19.191.375Q311.735,1051.465,311.644,1051.275Zm6.792,5.013c.069.011.138.023.208.032C318.574,1056.31,318.505,1056.3,318.436,1056.287Zm.569.074.12.01Zm.377.027.184.008Zm.518.016c-.091,0-.181,0-.271-.006l-1.414-1.38,1.616-1.578,1.341,1.311a.429.429,0,0,0,.593,0,.406.406,0,0,0,0-.58l-1.341-1.311,1.768-1.73.67.655a.425.425,0,0,0,.593,0,.406.406,0,0,0,0-.58l-.671-.654,1.992-1.947h4.168A9.048,9.048,0,0,1,319.9,1056.4Zm9.524-8.781a.789.789,0,0,1-.414.174.834.834,0,0,1-.089,0H310.88a.832.832,0,0,1-.089,0,.79.79,0,0,1-.416-.175.754.754,0,0,1-.281-.588.729.729,0,0,1,.084-.342.784.784,0,0,1,.7-.426h18.04a.788.788,0,0,1,.7.426.749.749,0,0,1,.082.342A.759.759,0,0,1,329.423,1047.623Z" transform="translate(-304.813 -1032.147)"/></svg>