<svg xmlns="http://www.w3.org/2000/svg" width="30.17" height="35" viewBox="0 0 30.17 35"><defs><style>.a{fill:#087f5d;}.b{fill:#fff;}</style></defs><path class="a" d="M1920.759,995.02a15.089,15.089,0,0,0-30.17,0c0,8.145,15.085,20.252,15.085,20.252S1920.759,1003.165,1920.759,995.02Z" transform="translate(-1890.589 -980.272)"/><g transform="translate(5.936 5.701)"><path class="b" d="M1973.411,1052.642a8.947,8.947,0,1,0,9.149,8.944A9.059,9.059,0,0,0,1973.411,1052.642Zm0,16.812a7.869,7.869,0,1,1,8.047-7.867A7.967,7.967,0,0,1,1973.411,1069.454Z" transform="translate(-1964.262 -1052.642)"/><path class="b" d="M2022.819,1104.341h-2.568v-2.51a.545.545,0,0,0-.551-.539h-3.118a.545.545,0,0,0-.551.539v2.51h-2.568a.545.545,0,0,0-.551.539v3.049a.545.545,0,0,0,.551.539h2.568v2.51a.545.545,0,0,0,.551.539h3.118a.545.545,0,0,0,.551-.539v-2.51h2.568a.545.545,0,0,0,.551-.539v-3.049q0-.008,0-.016A.572.572,0,0,0,2022.819,1104.341Zm-6.237,3.049h-2.568v-1.972h2.568a.546.546,0,0,0,.551-.539v-2.51h2.038v2.51a.546.546,0,0,0,.551.539h2.568v1.972H2019.7a.545.545,0,0,0-.551.539v2.51h-2.017v-2.51A.546.546,0,0,0,2016.582,1107.39Z" transform="translate(-2008.992 -1097.46)"/></g></svg>