<svg xmlns="http://www.w3.org/2000/svg" width="29.993" height="30" viewBox="0 0 29.993 30"><defs><style>.a{fill:#fff;}</style></defs><g transform="translate(5.8)"><path class="a" d="M116.8,1.7a5.006,5.006,0,0,0-7.941.558c-.079.111-.153.221-.223.331-.069-.11-.143-.22-.223-.331A5.006,5.006,0,0,0,100.47,1.7a5.858,5.858,0,0,0-1.434,3.913A7.082,7.082,0,0,0,101,10.294a42.508,42.508,0,0,0,4.8,4.443c.719.607,1.463,1.235,2.254,1.92a.879.879,0,0,0,1.151,0c.79-.685,1.534-1.313,2.254-1.92,1.25-1.055,2.33-1.967,3.267-2.851,1.819-1.716,3.5-3.664,3.5-6.275A5.858,5.858,0,0,0,116.8,1.7Zm-3.274,8.909c-.9.851-1.964,1.747-3.194,2.786-.547.462-1.109.936-1.7,1.439-.587-.5-1.148-.977-1.7-1.439-3.832-3.234-6.145-5.187-6.145-7.782a3.6,3.6,0,0,1,3.481-3.854,3.233,3.233,0,0,1,2.68,1.483,5.914,5.914,0,0,1,.833,1.651.879.879,0,0,0,1.694,0c.009-.031.9-3.134,3.513-3.134a3.6,3.6,0,0,1,3.481,3.854C116.475,7.2,115.648,8.6,113.524,10.608Z" transform="translate(-99.036 0)"/></g><g transform="translate(0 17.345)"><path class="a" d="M27.414,296.374a2.645,2.645,0,0,0-1.929.84L22.9,299.986a2.641,2.641,0,0,0-2.518-1.855H16.325a2.334,2.334,0,0,1-1.543-.582,6.164,6.164,0,0,0-8.06-.056,2.634,2.634,0,0,0-2.154-1.119H.936a.879.879,0,0,0-.879.879V307.8a.879.879,0,0,0,.879.879H4.568a2.63,2.63,0,0,0,1.981-.9l.52.146a20.209,20.209,0,0,0,5.469.754h7.846a6.18,6.18,0,0,0,4.921-2.46l4.219-5.625h0a2.636,2.636,0,0,0-2.11-4.216ZM5.446,306.04a.88.88,0,0,1-.879.879H1.814v-8.787H4.568a.88.88,0,0,1,.879.879Zm22.672-6.5h0L23.9,305.161a4.415,4.415,0,0,1-3.515,1.757H12.538a18.452,18.452,0,0,1-4.993-.688l-.344-.1c0-.031,0-.062,0-.094v-6.632l.612-.539a4.4,4.4,0,0,1,5.805,0,4.091,4.091,0,0,0,2.7,1.02h4.059a.879.879,0,1,1,0,1.757H14.139a.879.879,0,1,0,0,1.757h6.834a2.645,2.645,0,0,0,1.929-.839l3.869-4.153a.87.87,0,0,1,.643-.28.88.88,0,0,1,.879.879A.87.87,0,0,1,28.118,299.536Z" transform="translate(-0.057 -296.021)"/></g></svg>