<svg xmlns="http://www.w3.org/2000/svg" width="24.732" height="24.727" viewBox="0 0 24.732 24.727"><defs><style>.a{fill:#fff;}</style></defs><path class="a" d="M12.294,37.849a6.34,6.34,0,1,0,6.34,6.34A6.33,6.33,0,0,0,12.294,37.849Zm0,10.461a4.122,4.122,0,1,1,4.122-4.122,4.129,4.129,0,0,1-4.122,4.122Zm8.078-10.72a1.479,1.479,0,1,1-1.479-1.479A1.475,1.475,0,0,1,20.371,37.589Zm4.2,1.5a7.318,7.318,0,0,0-2-5.181,7.366,7.366,0,0,0-5.181-2c-2.041-.116-8.16-.116-10.2,0A7.355,7.355,0,0,0,2.009,33.9a7.342,7.342,0,0,0-2,5.181c-.116,2.041-.116,8.16,0,10.2a7.318,7.318,0,0,0,2,5.181,7.375,7.375,0,0,0,5.181,2c2.041.116,8.16.116,10.2,0a7.318,7.318,0,0,0,5.181-2,7.366,7.366,0,0,0,2-5.181C24.686,47.245,24.686,41.132,24.57,39.09ZM21.933,51.477a4.173,4.173,0,0,1-2.35,2.35c-1.628.646-5.49.5-7.289.5s-5.666.143-7.289-.5a4.173,4.173,0,0,1-2.35-2.35c-.646-1.628-.5-5.49-.5-7.289s-.143-5.666.5-7.289a4.173,4.173,0,0,1,2.35-2.35c1.628-.646,5.49-.5,7.289-.5s5.666-.143,7.289.5a4.173,4.173,0,0,1,2.35,2.35c.646,1.628.5,5.49.5,7.289S22.578,49.855,21.933,51.477Z" transform="translate(0.075 -31.825)"/></svg>
