<svg xmlns="http://www.w3.org/2000/svg" width="50.5" height="50.5" viewBox="0 0 50.5 50.5"><defs><style>.a{fill:#62c79d;}</style></defs><path class="a" d="M62.593,354.74l-1.516.425a1.479,1.479,0,0,0,.8,2.849l1.516-.425a1.48,1.48,0,0,0-.8-2.849Zm0,0" transform="translate(-54.079 -319.701)"/><path class="a" d="M217.257,357.626l-2.662-1.058a1.479,1.479,0,1,0-1.093,2.75l2.662,1.058a1.48,1.48,0,1,0,1.093-2.75Zm0,0" transform="translate(-191.603 -321.304)"/><path class="a" d="M380.525,350a1.479,1.479,0,0,0-1.479,1.479v.379l-.363.109a1.479,1.479,0,0,0,.85,2.834l1.417-.425A1.479,1.479,0,0,0,382,352.959v-1.479A1.479,1.479,0,0,0,380.525,350Zm0,0" transform="translate(-340.382 -315.479)"/><path class="a" d="M40.144,0a10.434,10.434,0,0,0-8.685,16.1l2.336,3.588L31.265,20.7,16.947,15.009a1.492,1.492,0,0,0-1.018-.047L1.057,19.394A1.48,1.48,0,0,0,0,20.812V47.541a1.479,1.479,0,0,0,1.9,1.418l14.4-4.292,14.388,5.717a1.55,1.55,0,0,0,.575.116,1.571,1.571,0,0,0,.445-.069L46.486,46a1.479,1.479,0,0,0,1.055-1.417V18.076L48.829,16.1A10.434,10.434,0,0,0,40.144,0ZM17.853,35.809a1.477,1.477,0,0,0,0-2.57V18.553L29.787,23.3V38.483a1.476,1.476,0,0,0,0,2.659v5.7L17.853,42.1ZM2.959,21.915l11.935-3.557V33.125l-.918.275a1.479,1.479,0,1,0,.85,2.834l.067-.02V42L2.959,45.556ZM44.582,43.481,32.746,47.032V41.244l.83-.249a1.479,1.479,0,0,0-.83-2.839V23.293l2.694-1.078,3.422,5.257a1.468,1.468,0,0,0-.2.737v1.578a1.479,1.479,0,0,0,2.959,0V28.209a1.468,1.468,0,0,0-.2-.737l3.157-4.85Zm1.767-29-6.205,9.533-6.205-9.533a7.364,7.364,0,0,1-1.192-4.029,7.4,7.4,0,1,1,14.795,0A7.364,7.364,0,0,1,46.349,14.484Zm0,0"/><path class="a" d="M366.438,60A4.549,4.549,0,0,0,362,64.537a4.438,4.438,0,0,0,8.877,0A4.549,4.549,0,0,0,366.438,60Zm0,6.017a1.481,1.481,0,0,1-1.479-1.479,1.483,1.483,0,1,1,2.959,0A1.481,1.481,0,0,1,366.438,66.017Zm0,0" transform="translate(-326.295 -54.082)"/></svg>