<svg xmlns="http://www.w3.org/2000/svg" xmlns:xlink="http://www.w3.org/1999/xlink" width="36" height="25" viewBox="0 0 36 25"><defs><style>.a{fill:#fff;}.b{clip-path:url(#a);}</style><clipPath id="a"><rect class="a" width="36" height="25" transform="translate(0 -0.273)"/></clipPath></defs><g transform="translate(-924 -514.727)"><g transform="translate(924 515)"><g class="b"><path class="a" d="M955.573,525.9c2-.164,3.355-1.074,3.877-2.307a6.383,6.383,0,0,1-4.2.465c-.06-.29-.127-.566-.193-.815-.943-3.462-4.169-6.249-7.549-5.912.272-.11.55-.214.827-.305.373-.133,2.556-.489,2.212-1.26-.29-.678-2.958.512-3.46.667.662-.249,1.76-.678,1.875-1.439a5.3,5.3,0,0,0-2.782,1.317,1.912,1.912,0,0,0,.534-1.057c-2.709,1.731-4.291,5.22-5.571,8.6a13.339,13.339,0,0,0-2.7-2.168,70.554,70.554,0,0,0-9.135-4.022c-.13,1.395.688,3.245,3.046,4.478a7.517,7.517,0,0,0-2.192.263c.305,1.6,1.3,2.911,3.987,3.547a3.258,3.258,0,0,0-2.439.964,4.133,4.133,0,0,0,4.383,2.148c-2.731,1.177-1.115,3.359,1.109,3.033a9.441,9.441,0,0,1-13.205.353c8.965,12.217,28.453,7.225,31.358-4.541a5.407,5.407,0,0,0,4.248-1.605,8.669,8.669,0,0,1-4.033-.409Zm0,0" transform="translate(-924 -515)"/></g></g></g></svg>
