<svg xmlns="http://www.w3.org/2000/svg" width="122" height="146.494" viewBox="0 0 122 146.494"><defs><style>.a{fill:none;stroke:#fff;stroke-width:3px;}.b{fill:#62c79d;}.c{fill:#fff;}</style></defs><g transform="translate(-44.5 -245.5)"><g transform="translate(46 247)"><path class="a" d="M3515.656,578.747c0,32.861-59.5,83.524-59.5,83.524s-59.5-50.663-59.5-83.524a59.5,59.5,0,0,1,119,0Z" transform="translate(-3396.656 -519.247)"/><path class="b" d="M3530.064,625.306a19.6,19.6,0,1,0-39.2,0,19.6,19.6,0,1,0-39.2,0s-2.047,27.527,39.184,45.237v.007l.009,0,.009,0v-.007c38.674-16.612,39.271-41.861,39.2-44.928C3530.062,625.512,3530.064,625.409,3530.064,625.306Z" transform="translate(-3431.355 -573.803)"/><g transform="translate(36.902 41.802)"><path class="c" d="M3538.44,652.032h-.7V651.2a18.478,18.478,0,0,0-36.954-.366q0,.183,0,.366v.835h-.7a3.418,3.418,0,0,0-1.865,6.281,21.128,21.128,0,0,0,42.092,0,3.414,3.414,0,0,0-1.865-6.277Zm-35.91-.835a16.73,16.73,0,1,1,33.461,0v.835h-2.74V651.2h-.027a13.962,13.962,0,0,0-27.924,0h-.028v.835h-2.74Zm28.945,0v.835h-24.431V651.2a12.215,12.215,0,1,1,24.431,0Zm-24.309,20.4,2.375-2.375,3.606,3.6-1.205,1.206a.907.907,0,0,0-.194.3,19.362,19.362,0,0,1-4.582-2.731Zm-.016-.013c-.15-.118-.3-.243-.442-.365.146.123.287.248.442.367Zm-.731-.619-.183-.162Zm-.539-7.948,3.434-3.43,3.677,3.676-3.434,3.432Zm4.932,4.932,3.434-3.434,3.6,3.606-3.43,3.43Zm5.062,7.581a19.234,19.234,0,0,1-2.346-.566l.89-.89Zm-.366-12.274,3.763-3.763,3.6,3.606-3.761,3.761Zm5.664-4.384h5.948l-2.974,2.974ZM3514.259,662l-3.131-3.131h6.261Zm-9.633-.245-2.886-2.886h5.773Zm-4.441-1.92,3.181,3.18-1.645,1.644a19.188,19.188,0,0,1-1.527-4.833Zm1.944,5.663c.146.276.3.548.457.811l2.04-2.04,3.677,3.677-2.468,2.468a19.454,19.454,0,0,1-3.719-4.91Zm-.413-.831c.128.276.263.548.406.815-.153-.261-.289-.534-.426-.807Zm14.441,10.9c.146.024.294.049.442.069-.158-.013-.307-.038-.453-.062Zm1.209.161.254.02Zm.8.059c.129,0,.261.014.391.018-.141,0-.272,0-.4-.011Zm1.1.035c-.194,0-.385,0-.575-.013l-3.005-3,3.435-3.431,2.852,2.852a.891.891,0,0,0,1.26-1.26l-2.852-2.852,3.761-3.763,1.425,1.425a.892.892,0,0,0,1.261,0v0a.9.9,0,0,0,0-1.262L3525.4,663.1l4.234-4.234h8.863a19.387,19.387,0,0,1-19.241,16.974Zm20.252-19.1a1.665,1.665,0,0,1-.88.376,1.6,1.6,0,0,1-.183.011H3500.09a1.587,1.587,0,0,1-.183-.011,1.676,1.676,0,0,1-1.482-1.659,1.629,1.629,0,0,1,.183-.745,1.666,1.666,0,0,1,1.493-.926h38.362a1.67,1.67,0,0,1,1.069,2.952Z" transform="translate(-3496.664 -632.536)"/></g></g></g></svg>